<svg width="80" height="80" viewBox="0 0 80 80" fill="none" xmlns="http://www.w3.org/2000/svg">
<mask id="path-1-outside-1_2296_1164" maskUnits="userSpaceOnUse" x="6.3833" y="6.40515" width="68" height="63" fill="black">
<rect fill="white" x="6.3833" y="6.40515" width="68" height="63"/>
<path fill-rule="evenodd" clip-rule="evenodd" d="M39.0326 8.50144C45.6832 8.57926 52.6414 8.65024 57.1418 8.48333C57.1526 8.48293 57.1634 8.48273 57.1743 8.48273H57.1867C57.3378 8.48273 57.4863 8.52186 57.6178 8.59631C59.1593 9.46913 60.4639 10.1988 61.5907 10.8291C65.1642 12.8279 66.9501 13.8269 68.8367 15.2201C69.0044 15.3439 69.1205 15.522 69.1679 15.7205H69.349C70.9861 15.7205 72.3132 17.0476 72.3132 18.6847C72.3132 20.3218 70.9861 21.649 69.349 21.649H69.1895C69.1979 28.0119 69.2338 37.0601 69.2805 45.3208C69.3124 50.9569 69.3493 56.2246 69.386 60.0205C69.4043 61.9189 69.4226 63.4472 69.4402 64.4689C69.449 64.9811 69.4575 65.3607 69.4656 65.595C69.4673 65.6457 69.469 65.6865 69.4704 65.7185C69.4912 65.8142 69.496 65.9136 69.4836 66.0127L69.4836 66.0129C69.4831 66.0179 69.4732 66.1103 69.4374 66.2117C69.4235 66.2484 69.3804 66.3396 69.3487 66.3933C69.2837 66.482 69.0498 66.6794 68.8687 66.7585C68.7763 66.7723 68.6616 66.7662 68.5451 66.7474L68.5427 66.7762C68.5687 66.7783 68.5945 66.7789 68.6022 66.7791C68.6088 66.7792 68.6024 66.779 68.5719 66.7791L68.4479 66.78C68.3381 66.7809 68.1768 66.7824 67.9672 66.7845C67.5874 66.7882 67.0505 66.7938 66.3764 66.8007L66.3606 66.8009L66.1621 66.803C64.6119 66.819 62.4046 66.8417 59.7586 66.867C54.4667 66.9175 47.4191 66.9781 40.3608 67.0155C33.3032 67.0528 26.2314 67.0668 20.892 67.024C18.2236 67.0026 15.9812 66.967 14.3877 66.9127C13.5931 66.8856 12.9478 66.8535 12.4879 66.8149C12.261 66.7959 12.0591 66.7738 11.9002 66.7462C11.8237 66.7328 11.7296 66.7137 11.6377 66.6838C11.5924 66.6691 11.5228 66.6439 11.4471 66.6026C11.3884 66.5705 11.229 66.478 11.1079 66.2885C10.9489 66.0399 10.9299 65.7368 11.0382 65.4785C11.0438 65.4279 11.0504 65.3574 11.0574 65.2636C11.0814 64.9429 11.1037 64.4481 11.1237 63.7941C11.1635 62.4908 11.1928 60.6021 11.2118 58.3172C11.2499 53.7495 11.2468 47.62 11.2064 41.4732C11.166 35.3261 11.0883 29.1666 10.9773 24.5382C10.9518 23.4754 10.9246 22.4949 10.8958 21.6148C9.47309 21.3972 8.3833 20.1682 8.3833 18.6847C8.3833 17.1014 9.62471 15.808 11.1873 15.7247C11.4034 15.5326 11.695 15.2915 12.0427 15.0172C12.7688 14.4445 13.7715 13.7022 14.9183 12.9133C17.1992 11.3441 20.1131 9.54693 22.5848 8.54663C22.6768 8.50941 22.7745 8.4881 22.8736 8.48362C25.903 8.34673 31.7518 8.41566 37.9932 8.48922L39.0326 8.50144ZM10.7009 17.6568C10.3599 17.8718 10.1333 18.2518 10.1333 18.6847C10.1333 19.169 10.4168 19.587 10.8268 19.7819C10.8138 19.4846 10.8005 19.207 10.787 18.9504C10.7589 18.4182 10.73 17.9847 10.7009 17.6568ZM12.5835 19.899C12.5676 19.5231 12.5513 19.1753 12.5345 18.8582C12.5054 18.3057 12.4744 17.8371 12.4412 17.4705H67.4384C67.4375 18.2026 67.4373 19.0161 67.4378 19.899H12.5835ZM12.6478 21.649C12.6758 22.5129 12.7022 23.4678 12.7268 24.4962C12.8381 29.1389 12.9159 35.3096 12.9563 41.4617C12.9968 47.6141 12.9999 53.7527 12.9618 58.3317C12.9427 60.6202 12.9133 62.5244 12.8729 63.8475C12.8579 64.3382 12.8412 64.7555 12.8225 65.0856C13.2264 65.1146 13.7719 65.1407 14.4474 65.1637C16.0173 65.2172 18.2413 65.2527 20.9061 65.2741C26.2333 65.3168 33.2957 65.3028 40.3515 65.2655C47.4064 65.2282 54.4512 65.1676 59.7419 65.1171C62.3872 65.0918 64.5939 65.0691 66.144 65.053L66.3868 65.0505L67.7006 65.037C67.6972 64.8764 67.6938 64.6966 67.6904 64.499C67.6728 63.4704 67.6544 61.9367 67.6361 60.0374C67.5993 56.2381 67.5624 50.9678 67.5305 45.3307C67.4838 37.07 67.4479 28.0176 67.4395 21.649H12.6478ZM69.1878 19.899H69.349C70.0196 19.899 70.5632 19.3553 70.5632 18.6847C70.5632 18.0141 70.0196 17.4705 69.349 17.4705H69.1884C69.1875 18.2023 69.1873 19.0159 69.1878 19.899ZM66.4976 15.7205H14.0023C14.5575 15.3059 15.2044 14.8405 15.9101 14.355C18.1171 12.8368 20.839 11.1643 23.1035 10.2253C26.1232 10.0996 31.8417 10.1669 38.0226 10.2397L39.0121 10.2513C45.5324 10.3276 52.4134 10.3985 56.9702 10.2406C58.4674 11.0876 59.7299 11.7939 60.8157 12.4014L60.8164 12.4018C63.4938 13.8997 65.0971 14.7967 66.4976 15.7205ZM11.0252 65.572L11.0253 65.5711L11.0269 65.5633C11.0263 65.5668 11.0258 65.5692 11.0255 65.5706C11.0253 65.5716 11.0252 65.5721 11.0252 65.572Z"/>
</mask>
<path fill-rule="evenodd" clip-rule="evenodd" d="M39.0326 8.50144C45.6832 8.57926 52.6414 8.65024 57.1418 8.48333C57.1526 8.48293 57.1634 8.48273 57.1743 8.48273H57.1867C57.3378 8.48273 57.4863 8.52186 57.6178 8.59631C59.1593 9.46913 60.4639 10.1988 61.5907 10.8291C65.1642 12.8279 66.9501 13.8269 68.8367 15.2201C69.0044 15.3439 69.1205 15.522 69.1679 15.7205H69.349C70.9861 15.7205 72.3132 17.0476 72.3132 18.6847C72.3132 20.3218 70.9861 21.649 69.349 21.649H69.1895C69.1979 28.0119 69.2338 37.0601 69.2805 45.3208C69.3124 50.9569 69.3493 56.2246 69.386 60.0205C69.4043 61.9189 69.4226 63.4472 69.4402 64.4689C69.449 64.9811 69.4575 65.3607 69.4656 65.595C69.4673 65.6457 69.469 65.6865 69.4704 65.7185C69.4912 65.8142 69.496 65.9136 69.4836 66.0127L69.4836 66.0129C69.4831 66.0179 69.4732 66.1103 69.4374 66.2117C69.4235 66.2484 69.3804 66.3396 69.3487 66.3933C69.2837 66.482 69.0498 66.6794 68.8687 66.7585C68.7763 66.7723 68.6616 66.7662 68.5451 66.7474L68.5427 66.7762C68.5687 66.7783 68.5945 66.7789 68.6022 66.7791C68.6088 66.7792 68.6024 66.779 68.5719 66.7791L68.4479 66.78C68.3381 66.7809 68.1768 66.7824 67.9672 66.7845C67.5874 66.7882 67.0505 66.7938 66.3764 66.8007L66.3606 66.8009L66.1621 66.803C64.6119 66.819 62.4046 66.8417 59.7586 66.867C54.4667 66.9175 47.4191 66.9781 40.3608 67.0155C33.3032 67.0528 26.2314 67.0668 20.892 67.024C18.2236 67.0026 15.9812 66.967 14.3877 66.9127C13.5931 66.8856 12.9478 66.8535 12.4879 66.8149C12.261 66.7959 12.0591 66.7738 11.9002 66.7462C11.8237 66.7328 11.7296 66.7137 11.6377 66.6838C11.5924 66.6691 11.5228 66.6439 11.4471 66.6026C11.3884 66.5705 11.229 66.478 11.1079 66.2885C10.9489 66.0399 10.9299 65.7368 11.0382 65.4785C11.0438 65.4279 11.0504 65.3574 11.0574 65.2636C11.0814 64.9429 11.1037 64.4481 11.1237 63.7941C11.1635 62.4908 11.1928 60.6021 11.2118 58.3172C11.2499 53.7495 11.2468 47.62 11.2064 41.4732C11.166 35.3261 11.0883 29.1666 10.9773 24.5382C10.9518 23.4754 10.9246 22.4949 10.8958 21.6148C9.47309 21.3972 8.3833 20.1682 8.3833 18.6847C8.3833 17.1014 9.62471 15.808 11.1873 15.7247C11.4034 15.5326 11.695 15.2915 12.0427 15.0172C12.7688 14.4445 13.7715 13.7022 14.9183 12.9133C17.1992 11.3441 20.1131 9.54693 22.5848 8.54663C22.6768 8.50941 22.7745 8.4881 22.8736 8.48362C25.903 8.34673 31.7518 8.41566 37.9932 8.48922L39.0326 8.50144ZM10.7009 17.6568C10.3599 17.8718 10.1333 18.2518 10.1333 18.6847C10.1333 19.169 10.4168 19.587 10.8268 19.7819C10.8138 19.4846 10.8005 19.207 10.787 18.9504C10.7589 18.4182 10.73 17.9847 10.7009 17.6568ZM12.5835 19.899C12.5676 19.5231 12.5513 19.1753 12.5345 18.8582C12.5054 18.3057 12.4744 17.8371 12.4412 17.4705H67.4384C67.4375 18.2026 67.4373 19.0161 67.4378 19.899H12.5835ZM12.6478 21.649C12.6758 22.5129 12.7022 23.4678 12.7268 24.4962C12.8381 29.1389 12.9159 35.3096 12.9563 41.4617C12.9968 47.6141 12.9999 53.7527 12.9618 58.3317C12.9427 60.6202 12.9133 62.5244 12.8729 63.8475C12.8579 64.3382 12.8412 64.7555 12.8225 65.0856C13.2264 65.1146 13.7719 65.1407 14.4474 65.1637C16.0173 65.2172 18.2413 65.2527 20.9061 65.2741C26.2333 65.3168 33.2957 65.3028 40.3515 65.2655C47.4064 65.2282 54.4512 65.1676 59.7419 65.1171C62.3872 65.0918 64.5939 65.0691 66.144 65.053L66.3868 65.0505L67.7006 65.037C67.6972 64.8764 67.6938 64.6966 67.6904 64.499C67.6728 63.4704 67.6544 61.9367 67.6361 60.0374C67.5993 56.2381 67.5624 50.9678 67.5305 45.3307C67.4838 37.07 67.4479 28.0176 67.4395 21.649H12.6478ZM69.1878 19.899H69.349C70.0196 19.899 70.5632 19.3553 70.5632 18.6847C70.5632 18.0141 70.0196 17.4705 69.349 17.4705H69.1884C69.1875 18.2023 69.1873 19.0159 69.1878 19.899ZM66.4976 15.7205H14.0023C14.5575 15.3059 15.2044 14.8405 15.9101 14.355C18.1171 12.8368 20.839 11.1643 23.1035 10.2253C26.1232 10.0996 31.8417 10.1669 38.0226 10.2397L39.0121 10.2513C45.5324 10.3276 52.4134 10.3985 56.9702 10.2406C58.4674 11.0876 59.7299 11.7939 60.8157 12.4014L60.8164 12.4018C63.4938 13.8997 65.0971 14.7967 66.4976 15.7205ZM11.0252 65.572L11.0253 65.5711L11.0269 65.5633C11.0263 65.5668 11.0258 65.5692 11.0255 65.5706C11.0253 65.5716 11.0252 65.5721 11.0252 65.572Z" fill="#1F2020"/>
<path d="M57.1418 8.48333L57.2067 10.2321L57.2067 10.2321L57.1418 8.48333ZM39.0326 8.50144L39.012 10.2513L39.0121 10.2513L39.0326 8.50144ZM57.6178 8.59631L56.7556 10.1191L56.7556 10.1191L57.6178 8.59631ZM61.5907 10.8291L62.445 9.30179V9.30179L61.5907 10.8291ZM68.8367 15.2201L69.8763 13.8123L68.8367 15.2201ZM69.1679 15.7205L67.4659 16.1275C67.6542 16.915 68.3582 17.4705 69.1679 17.4705V15.7205ZM69.1895 21.649V19.899C68.7249 19.899 68.2795 20.0837 67.9512 20.4123C67.6229 20.741 67.4388 21.1868 67.4395 21.6513L69.1895 21.649ZM69.2805 45.3208L71.0305 45.3109L69.2805 45.3208ZM69.386 60.0205L67.6361 60.0374V60.0374L69.386 60.0205ZM69.4402 64.4689L71.1899 64.4389L69.4402 64.4689ZM69.4656 65.595L67.7166 65.6553L67.7166 65.6554L69.4656 65.595ZM69.4704 65.7185L67.7222 65.7978C67.7267 65.8961 67.7394 65.9939 67.7603 66.09L69.4704 65.7185ZM69.4836 66.0127L67.7471 65.7957C67.7463 65.8024 67.7455 65.8091 67.7447 65.8159L69.4836 66.0127ZM69.4836 66.0129L67.7446 65.8161L67.7433 65.8285L69.4836 66.0129ZM69.4374 66.2117L71.0743 66.8306C71.0787 66.8188 71.083 66.807 71.0872 66.7952L69.4374 66.2117ZM69.3487 66.3933L70.761 67.4267C70.7946 67.3808 70.8259 67.3332 70.8549 67.2842L69.3487 66.3933ZM68.8687 66.7585L69.1267 68.4894C69.2791 68.4666 69.4279 68.4239 69.5692 68.3622L68.8687 66.7585ZM68.5451 66.7474L68.8238 65.0197C68.3426 64.9421 67.8507 65.0687 67.4668 65.369C67.0828 65.6694 66.8416 66.1163 66.8011 66.6021L68.5451 66.7474ZM68.5427 66.7762L66.7987 66.6309C66.7185 67.5941 67.4342 68.4399 68.3974 68.5201L68.5427 66.7762ZM68.6022 66.7791L68.572 68.5288L68.5729 68.5288L68.6022 66.7791ZM68.5719 66.7791L68.5636 65.0291L68.5596 65.0291L68.5719 66.7791ZM68.4479 66.78L68.4356 65.03L68.4336 65.03L68.4479 66.78ZM67.9672 66.7845L67.9499 65.0345H67.9499L67.9672 66.7845ZM66.3764 66.8007L66.3941 68.5506L66.3945 68.5506L66.3764 66.8007ZM66.3606 66.8009L66.3429 65.051L66.3425 65.051L66.3606 66.8009ZM66.1621 66.803L66.144 65.053L66.1621 66.803ZM59.7586 66.867L59.7753 68.6169L59.7586 66.867ZM40.3608 67.0155L40.37 68.7654L40.3608 67.0155ZM20.892 67.024L20.9061 65.2741L20.892 67.024ZM14.3877 66.9127L14.3281 68.6617H14.3281L14.3877 66.9127ZM12.4879 66.8149L12.3419 68.5588H12.3419L12.4879 66.8149ZM11.9002 66.7462L12.2002 65.0221L12.2001 65.022L11.9002 66.7462ZM11.6377 66.6838L11.0966 68.3481L11.0967 68.3481L11.6377 66.6838ZM11.4471 66.6026L10.6082 68.1384L10.6082 68.1384L11.4471 66.6026ZM11.1079 66.2885L9.63344 67.2311H9.63344L11.1079 66.2885ZM11.0382 65.4785L12.6521 66.155C12.7168 66.0006 12.7591 65.8377 12.7775 65.6712L11.0382 65.4785ZM11.0574 65.2636L12.8025 65.3942L12.8025 65.3942L11.0574 65.2636ZM11.1237 63.7941L9.37451 63.7406L11.1237 63.7941ZM11.2118 58.3172L9.46188 58.3026L11.2118 58.3172ZM11.2064 41.4732L12.9563 41.4617L11.2064 41.4732ZM10.9773 24.5382L9.22782 24.5801L10.9773 24.5382ZM10.8958 21.6148L12.6448 21.5574C12.6172 20.7152 11.9933 20.0122 11.1603 19.8849L10.8958 21.6148ZM11.1873 15.7247L11.2804 17.4722C11.6766 17.4511 12.0538 17.2961 12.3502 17.0324L11.1873 15.7247ZM12.0427 15.0172L13.1265 16.3912L12.0427 15.0172ZM14.9183 12.9133L15.9101 14.355L14.9183 12.9133ZM22.5848 8.54663L21.9283 6.92444L21.9283 6.92444L22.5848 8.54663ZM22.8736 8.48362L22.7946 6.7354H22.7946L22.8736 8.48362ZM37.9932 8.48922L37.9726 10.2391L37.9726 10.2391L37.9932 8.48922ZM10.7009 17.6568L12.4441 17.502C12.3901 16.8947 12.024 16.3592 11.4777 16.0886C10.9313 15.818 10.2835 15.8512 9.7677 16.1764L10.7009 17.6568ZM10.8268 19.7819L10.0754 21.3624C10.6299 21.626 11.2819 21.5798 11.7937 21.2406C12.3054 20.9014 12.602 20.3188 12.5751 19.7055L10.8268 19.7819ZM10.787 18.9504L9.03941 19.0427L10.787 18.9504ZM12.5835 19.899L10.835 19.9727C10.8745 20.9097 11.6456 21.649 12.5835 21.649V19.899ZM12.5345 18.8582L14.2821 18.7659V18.7659L12.5345 18.8582ZM12.4412 17.4705V15.7205C11.9497 15.7205 11.4808 15.9272 11.1492 16.2901C10.8177 16.653 10.654 17.1387 10.6984 17.6282L12.4412 17.4705ZM67.4384 17.4705L69.1884 17.4727C69.189 17.0082 69.0049 16.5625 68.6766 16.2338C68.3484 15.9051 67.9029 15.7205 67.4384 15.7205V17.4705ZM67.4378 19.899V21.649C67.9021 21.649 68.3473 21.4645 68.6756 21.1361C69.0038 20.8077 69.188 20.3623 69.1878 19.898L67.4378 19.899ZM12.7268 24.4962L10.9773 24.5382L12.7268 24.4962ZM12.6478 21.649V19.899C12.1739 19.899 11.7202 20.0912 11.3905 20.4317C11.0608 20.7722 10.8834 21.2319 10.8987 21.7056L12.6478 21.649ZM12.9563 41.4617L14.7063 41.4502L12.9563 41.4617ZM12.9618 58.3317L11.2118 58.3172L12.9618 58.3317ZM12.8729 63.8475L14.6221 63.901L12.8729 63.8475ZM12.8225 65.0856L11.0753 64.9866C11.0212 65.9414 11.7436 66.7628 12.6974 66.8312L12.8225 65.0856ZM14.4474 65.1637L14.507 63.4147H14.507L14.4474 65.1637ZM20.9061 65.2741L20.9201 63.5241H20.9201L20.9061 65.2741ZM40.3515 65.2655L40.3608 67.0155L40.3515 65.2655ZM59.7419 65.1171L59.7586 66.867L59.7419 65.1171ZM66.144 65.053L66.1259 63.3031L66.1259 63.3031L66.144 65.053ZM66.3868 65.0505L66.3688 63.3006H66.3687L66.3868 65.0505ZM67.7006 65.037L67.7186 66.7869C68.1859 66.7821 68.6319 66.5906 68.9572 66.255C69.2825 65.9194 69.46 65.4676 69.4502 65.0004L67.7006 65.037ZM67.6904 64.499L65.9407 64.529V64.5291L67.6904 64.499ZM67.6361 60.0374L69.386 60.0205L67.6361 60.0374ZM67.5305 45.3307L65.7805 45.3406L67.5305 45.3307ZM67.4395 21.649L69.1895 21.6466C69.1882 20.681 68.405 19.899 67.4395 19.899V21.649ZM69.1878 19.899L67.4378 19.8999C67.4383 20.866 68.2217 21.649 69.1878 21.649V19.899ZM69.1884 17.4705V15.7205C68.2228 15.7205 67.4397 16.5026 67.4384 17.4683L69.1884 17.4705ZM14.0023 15.7205L12.9554 14.3182C12.3512 14.7692 12.1039 15.5565 12.3415 16.2721C12.5792 16.9876 13.2484 17.4705 14.0023 17.4705V15.7205ZM66.4976 15.7205V17.4705C67.2703 17.4705 67.9516 16.9636 68.1737 16.2235C68.3959 15.4833 68.1062 14.6851 67.4612 14.2596L66.4976 15.7205ZM15.9101 14.355L14.9183 12.9133L14.9183 12.9133L15.9101 14.355ZM23.1035 10.2253L23.0307 8.4768C22.8254 8.48535 22.6231 8.53002 22.4332 8.60875L23.1035 10.2253ZM38.0226 10.2397L38.002 11.9896L38.0021 11.9896L38.0226 10.2397ZM39.0121 10.2513L38.9916 12.0012L38.9917 12.0012L39.0121 10.2513ZM56.9702 10.2406L57.8318 8.71744C57.5511 8.55862 57.2319 8.48048 56.9096 8.49166L56.9702 10.2406ZM60.8157 12.4014L61.6748 10.8768L61.6701 10.8742L60.8157 12.4014ZM60.8164 12.4018L59.9573 13.9264L59.962 13.929L60.8164 12.4018ZM11.0253 65.5711L9.3118 65.2155C9.30346 65.2557 9.29653 65.2961 9.29104 65.3368L11.0253 65.5711ZM11.0252 65.572L9.29091 65.3378C9.25692 65.5894 9.2781 65.8454 9.35297 66.088L11.0252 65.572ZM11.0269 65.5633L12.7505 65.8663C12.916 64.9247 12.2952 64.0245 11.3562 63.8446C10.4172 63.6647 9.50767 64.2716 9.3134 65.2077L11.0269 65.5633ZM11.0255 65.5706L12.7369 65.936L12.737 65.9359L11.0255 65.5706ZM57.077 6.73453C52.629 6.8995 45.7203 6.82958 39.0531 6.75156L39.0121 10.2513C45.6462 10.3289 52.6537 10.401 57.2067 10.2321L57.077 6.73453ZM57.1743 6.73273C57.1418 6.73273 57.1094 6.73333 57.077 6.73453L57.2067 10.2321C57.1959 10.2325 57.1851 10.2327 57.1743 10.2327V6.73273ZM57.1867 6.73273H57.1743V10.2327H57.1867V6.73273ZM58.4801 7.07349C58.0856 6.85012 57.64 6.73273 57.1867 6.73273V10.2327C57.0356 10.2327 56.8871 10.1936 56.7556 10.1191L58.4801 7.07349ZM62.445 9.30179C61.3181 8.67151 60.0172 7.94381 58.4801 7.07348L56.7556 10.1191C58.3014 10.9944 59.6096 11.7261 60.7364 12.3564L62.445 9.30179ZM69.8763 13.8123C67.8829 12.3403 65.9915 11.2855 62.445 9.30179L60.7364 12.3564C64.3368 14.3703 66.0173 15.3135 67.7971 16.6278L69.8763 13.8123ZM70.8699 15.3135C70.7276 14.7182 70.3795 14.1839 69.8763 13.8123L67.7971 16.6278C67.6293 16.5039 67.5133 16.3257 67.4659 16.1275L70.8699 15.3135ZM69.1679 17.4705H69.349V13.9705H69.1679V17.4705ZM69.349 17.4705C70.0196 17.4705 70.5632 18.0141 70.5632 18.6847H74.0632C74.0632 16.0811 71.9526 13.9705 69.349 13.9705V17.4705ZM70.5632 18.6847C70.5632 19.3553 70.0196 19.899 69.349 19.899V23.399C71.9526 23.399 74.0632 21.2883 74.0632 18.6847H70.5632ZM69.349 19.899H69.1895V23.399H69.349V19.899ZM71.0305 45.3109C70.9838 37.0517 70.9479 28.0063 70.9395 21.6466L67.4395 21.6513C67.448 28.0176 67.4838 37.0684 67.5305 45.3307L71.0305 45.3109ZM71.1359 60.0036C71.0992 56.2111 71.0623 50.9461 71.0305 45.3109L67.5305 45.3307C67.5624 50.9678 67.5993 56.2381 67.6361 60.0374L71.1359 60.0036ZM71.1899 64.4389C71.1725 63.424 71.1542 61.9011 71.1359 60.0036L67.6361 60.0374C67.6544 61.9367 67.6728 63.4704 67.6904 64.499L71.1899 64.4389ZM71.2145 65.5346C71.207 65.3167 71.1987 64.9501 71.1899 64.4389L67.6904 64.499C67.6992 65.012 67.708 65.4047 67.7166 65.6553L71.2145 65.5346ZM71.2186 65.6391C71.2175 65.6148 71.2161 65.5804 71.2145 65.5345L67.7166 65.6554C67.7185 65.711 67.7204 65.7583 67.7222 65.7978L71.2186 65.6391ZM71.2201 66.2298C71.2572 65.9325 71.2429 65.6341 71.1805 65.3469L67.7603 66.09C67.7395 65.9943 67.7347 65.8947 67.7471 65.7957L71.2201 66.2298ZM71.2225 66.2098L71.2225 66.2096L67.7447 65.8159L67.7447 65.8161L71.2225 66.2098ZM71.0872 66.7952C71.1907 66.5025 71.2181 66.2516 71.2238 66.1974L67.7433 65.8285C67.7465 65.7987 67.7502 65.7716 67.7553 65.7455C67.7596 65.7231 67.7683 65.6824 67.7875 65.6283L71.0872 66.7952ZM70.8549 67.2842C70.9354 67.1482 71.023 66.9662 71.0743 66.8306L67.8004 65.5929C67.8085 65.5716 67.8148 65.5564 67.8175 65.55C67.8207 65.5424 67.8229 65.5375 67.8237 65.5356C67.8253 65.532 67.8253 65.5322 67.8239 65.535C67.8226 65.5377 67.8222 65.5385 67.8232 65.5365C67.8234 65.5362 67.83 65.5234 67.8425 65.5023L70.8549 67.2842ZM69.5692 68.3622C69.8538 68.2379 70.091 68.0678 70.2353 67.9541C70.3567 67.8584 70.5842 67.6683 70.761 67.4267L67.9364 65.3599C67.9801 65.3002 68.0162 65.2601 68.031 65.2441C68.0488 65.2249 68.0612 65.2129 68.0661 65.2082C68.0755 65.1993 68.076 65.1996 68.0692 65.2049C68.0627 65.21 68.0609 65.2109 68.067 65.2069C68.0691 65.2056 68.1039 65.1829 68.1682 65.1548L69.5692 68.3622ZM68.2664 68.475C68.4747 68.5086 68.7869 68.54 69.1267 68.4894L68.6107 65.0276C68.6996 65.0144 68.7614 65.0156 68.7847 65.0165C68.7989 65.0171 68.8089 65.0179 68.8145 65.0185C68.8202 65.0191 68.8233 65.0196 68.8238 65.0197L68.2664 68.475ZM70.2867 66.9214L70.2891 66.8926L66.8011 66.6021L66.7987 66.6309L70.2867 66.9214ZM68.6324 65.0293C68.6388 65.0294 68.6446 65.0296 68.6508 65.0298C68.6559 65.0301 68.6689 65.0306 68.688 65.0322L68.3974 68.5201C68.4804 68.527 68.5507 68.5284 68.572 68.5288L68.6324 65.0293ZM68.5802 68.5291C68.5909 68.529 68.5944 68.5291 68.5924 68.5291C68.5919 68.5291 68.5909 68.529 68.5894 68.529C68.5887 68.529 68.5876 68.529 68.5863 68.529C68.5857 68.529 68.5848 68.529 68.5836 68.529C68.5833 68.529 68.5799 68.5289 68.5756 68.5289C68.5744 68.5288 68.5717 68.5288 68.5682 68.5287C68.5664 68.5287 68.5633 68.5286 68.5593 68.5285C68.557 68.5285 68.5469 68.5282 68.5339 68.5277C68.5259 68.5273 68.5028 68.5261 68.4878 68.5252C68.4488 68.5222 68.0935 68.4528 67.7945 68.3303C66.8778 66.4951 68.4158 65.0393 68.4979 65.0324C68.5207 65.0311 68.5542 65.0298 68.5649 65.0296C68.5809 65.0292 68.5935 65.0291 68.5954 65.0291C68.5999 65.0291 68.6034 65.0291 68.6052 65.0291C68.6115 65.0291 68.6164 65.0291 68.6168 65.0291C68.6183 65.0292 68.6196 65.0292 68.6203 65.0292C68.623 65.0292 68.625 65.0292 68.6259 65.0292C68.6282 65.0293 68.6301 65.0293 68.6316 65.0293L68.5729 68.5288C68.576 68.5289 68.5791 68.5289 68.5822 68.529C68.5835 68.529 68.5858 68.529 68.5886 68.529C68.5894 68.529 68.5907 68.529 68.5923 68.5291C68.5927 68.5291 68.5977 68.5291 68.6039 68.5291C68.6057 68.5291 68.6093 68.5291 68.6138 68.5291C68.6157 68.5291 68.6283 68.529 68.6442 68.5287C68.6549 68.5284 68.6884 68.5271 68.7112 68.5258C68.7933 68.5189 70.3314 67.0631 69.4146 65.2279C69.1157 65.1054 68.7604 65.036 68.7213 65.033C68.7063 65.0321 68.6832 65.0309 68.6752 65.0305C68.6622 65.03 68.6521 65.0297 68.6499 65.0297C68.6459 65.0296 68.6427 65.0295 68.641 65.0295C68.6374 65.0294 68.6347 65.0294 68.6335 65.0293C68.6218 65.0291 68.6111 65.0291 68.6095 65.0291C68.5983 65.029 68.5834 65.029 68.5636 65.0291L68.5802 68.5291ZM68.4602 68.5299L68.5842 68.5291L68.5596 65.0291L68.4356 65.03L68.4602 68.5299ZM67.9844 68.5344C68.194 68.5323 68.354 68.5308 68.4623 68.5299L68.4336 65.03C68.3222 65.0309 68.1597 65.0325 67.9499 65.0345L67.9844 68.5344ZM66.3945 68.5506C67.0688 68.5437 67.6052 68.5381 67.9845 68.5344L67.9499 65.0345C67.5696 65.0383 67.0322 65.0439 66.3583 65.0508L66.3945 68.5506ZM66.3783 68.5508L66.3941 68.5506L66.3587 65.0508L66.3429 65.051L66.3783 68.5508ZM66.1802 68.5529L66.3787 68.5508L66.3425 65.051L66.144 65.053L66.1802 68.5529ZM59.7753 68.6169C62.4221 68.5916 64.6298 68.5689 66.1802 68.5529L66.144 65.053C64.5939 65.0691 62.3872 65.0918 59.7419 65.1171L59.7753 68.6169ZM40.37 68.7654C47.4319 68.7281 54.4822 68.6674 59.7753 68.6169L59.7419 65.1171C54.4512 65.1676 47.4064 65.2282 40.3515 65.2655L40.37 68.7654ZM20.878 68.7739C26.2294 68.8168 33.3108 68.8028 40.37 68.7654L40.3515 65.2655C33.2957 65.3028 26.2333 65.3168 20.9061 65.2741L20.878 68.7739ZM14.3281 68.6617C15.945 68.7168 18.2058 68.7525 20.878 68.7739L20.9061 65.2741C18.2413 65.2527 16.0173 65.2172 14.4474 65.1637L14.3281 68.6617ZM12.3419 68.5588C12.8459 68.601 13.5258 68.6343 14.3281 68.6617L14.4474 65.1637C13.6604 65.1369 13.0497 65.1059 12.6339 65.071L12.3419 68.5588ZM11.6002 68.4702C11.8361 68.5113 12.0988 68.5385 12.3419 68.5588L12.6339 65.071C12.4232 65.0534 12.2822 65.0363 12.2002 65.0221L11.6002 68.4702ZM11.0967 68.3481C11.3034 68.4153 11.4905 68.4512 11.6003 68.4703L12.2001 65.022C12.1816 65.0188 12.1706 65.0165 12.1646 65.0152C12.1619 65.0146 12.1617 65.0145 12.1636 65.015C12.1654 65.0155 12.1706 65.0169 12.1786 65.0195L11.0967 68.3481ZM10.6082 68.1384C10.8139 68.2507 10.9946 68.3149 11.0966 68.3481L12.1787 65.0195C12.1902 65.0233 12.2318 65.0371 12.286 65.0667L10.6082 68.1384ZM9.63344 67.2311C9.98856 67.7866 10.4507 68.0524 10.6082 68.1384L12.2861 65.0668C12.326 65.0886 12.4695 65.1694 12.5823 65.3458L9.63344 67.2311ZM9.42421 64.802C9.10044 65.5744 9.15592 66.4842 9.63344 67.2311L12.5823 65.3458C12.7419 65.5955 12.7594 65.8991 12.6521 66.155L9.42421 64.802ZM9.31227 65.1329C9.30636 65.2119 9.30156 65.2609 9.29881 65.2858L12.7775 65.6712C12.786 65.5948 12.7944 65.5029 12.8025 65.3942L9.31227 65.1329ZM9.37451 63.7406C9.35468 64.3895 9.33326 64.8525 9.31227 65.1329L12.8025 65.3942C12.8295 65.0333 12.8527 64.5066 12.8729 63.8475L9.37451 63.7406ZM9.46188 58.3026C9.44288 60.584 9.41372 62.4572 9.37451 63.7406L12.8729 63.8475C12.9133 62.5244 12.9427 60.6202 12.9618 58.3317L9.46188 58.3026ZM9.45641 41.4847C9.49677 47.626 9.49983 53.7463 9.46188 58.3026L12.9618 58.3317C12.9999 53.7527 12.9968 47.6141 12.9563 41.4617L9.45641 41.4847ZM9.22782 24.5801C9.33845 29.1943 9.41604 35.3426 9.45641 41.4847L12.9563 41.4617C12.9159 35.3096 12.8381 29.1389 12.7268 24.4962L9.22782 24.5801ZM9.14672 21.6721C9.17536 22.546 9.20243 23.5212 9.22782 24.5801L12.7268 24.4962C12.7012 23.4297 12.6739 22.4438 12.6448 21.5574L9.14672 21.6721ZM11.1603 19.8849C10.5791 19.796 10.1333 19.2908 10.1333 18.6847H6.6333C6.6333 21.0456 8.36712 22.9984 10.6312 23.3446L11.1603 19.8849ZM10.1333 18.6847C10.1333 18.0367 10.6418 17.5063 11.2804 17.4722L11.0942 13.9772C8.60761 14.1097 6.6333 16.166 6.6333 18.6847H10.1333ZM10.959 13.6431C10.5969 13.9287 10.276 14.1933 10.0244 14.417L12.3502 17.0324C12.5307 16.8719 12.793 16.6543 13.1265 16.3912L10.959 13.6431ZM13.9264 11.4715C12.7524 12.2791 11.7186 13.0439 10.959 13.6431L13.1265 16.3912C13.8189 15.845 14.7905 15.1253 15.9101 14.355L13.9264 11.4715ZM21.9283 6.92444C19.2762 7.99774 16.2365 9.88232 13.9264 11.4715L15.9101 14.355C18.162 12.8059 20.95 11.0961 23.2413 10.1688L21.9283 6.92444ZM22.7946 6.7354C22.4972 6.74884 22.2043 6.81276 21.9283 6.92444L23.2413 10.1688C23.1494 10.206 23.0517 10.2274 22.9526 10.2318L22.7946 6.7354ZM38.0138 6.73934C31.8033 6.66615 25.8876 6.59564 22.7946 6.7354L22.9526 10.2318C25.9184 10.0978 31.7004 10.1652 37.9726 10.2391L38.0138 6.73934ZM39.0532 6.75156L38.0138 6.73934L37.9726 10.2391L39.012 10.2513L39.0532 6.75156ZM9.7677 16.1764C8.93968 16.6983 8.3833 17.6259 8.3833 18.6847H11.8833C11.8833 18.8777 11.7801 19.0452 11.6341 19.1372L9.7677 16.1764ZM8.3833 18.6847C8.3833 19.8695 9.07846 20.8884 10.0754 21.3624L11.5782 18.2015C11.7551 18.2856 11.8833 18.4684 11.8833 18.6847H8.3833ZM9.03941 19.0427C9.05264 19.2932 9.06567 19.5655 9.07849 19.8584L12.5751 19.7055C12.5619 19.4038 12.5484 19.1209 12.5345 18.8582L9.03941 19.0427ZM8.95778 17.8116C8.98427 18.11 9.01183 18.5203 9.03941 19.0427L12.5345 18.8582C12.5059 18.316 12.4758 17.8594 12.4441 17.502L8.95778 17.8116ZM14.3319 19.8252C14.3158 19.4444 14.2992 19.0904 14.2821 18.7659L10.787 18.9504C10.8033 19.2603 10.8194 19.6017 10.835 19.9727L14.3319 19.8252ZM14.2821 18.7659C14.2524 18.2038 14.2201 17.7106 14.1841 17.3127L10.6984 17.6282C10.7287 17.9636 10.7583 18.4076 10.787 18.9504L14.2821 18.7659ZM67.4384 15.7205H12.4412V19.2205H67.4384V15.7205ZM65.6884 17.4683C65.6875 18.2017 65.6873 19.0163 65.6878 19.8999L69.1878 19.898C69.1873 19.016 69.1875 18.2035 69.1884 17.4727L65.6884 17.4683ZM12.5835 21.649H67.4378V18.149H12.5835V21.649ZM14.4763 24.4543C14.4516 23.4221 14.4251 22.4622 14.3969 21.5923L10.8987 21.7056C10.9265 22.5636 10.9527 23.5134 10.9773 24.5382L14.4763 24.4543ZM14.7063 41.4502C14.6658 35.2932 14.588 29.1112 14.4763 24.4543L10.9773 24.5382C11.0883 29.1666 11.166 35.3261 11.2064 41.4732L14.7063 41.4502ZM14.7117 58.3463C14.7499 53.7559 14.7468 47.6081 14.7063 41.4502L11.2064 41.4732C11.2468 47.62 11.2499 53.7495 11.2118 58.3172L14.7117 58.3463ZM14.6221 63.901C14.6631 62.558 14.6926 60.6383 14.7117 58.3463L11.2118 58.3172C11.1928 60.6021 11.1635 62.4908 11.1237 63.7941L14.6221 63.901ZM14.5697 65.1846C14.5896 64.833 14.6068 64.3989 14.6221 63.901L11.1237 63.7941C11.1089 64.2776 11.0928 64.678 11.0753 64.9866L14.5697 65.1846ZM14.507 63.4147C13.8406 63.392 13.3198 63.3668 12.9476 63.3401L12.6974 66.8312C13.133 66.8624 13.7033 66.8893 14.3877 66.9127L14.507 63.4147ZM20.9201 63.5241C18.259 63.5028 16.0534 63.4674 14.507 63.4147L14.3877 66.9127C15.9812 66.967 18.2236 67.0026 20.892 67.024L20.9201 63.5241ZM40.3422 63.5155C33.2882 63.5528 26.2353 63.5667 20.9201 63.5241L20.892 67.024C26.2314 67.0668 33.3032 67.0528 40.3608 67.0155L40.3422 63.5155ZM59.7252 63.3671C54.4357 63.4176 47.3937 63.4782 40.3422 63.5155L40.3608 67.0155C47.4191 66.9781 54.4667 66.9175 59.7586 66.867L59.7252 63.3671ZM66.1259 63.3031C64.5759 63.3192 62.3698 63.3419 59.7252 63.3671L59.7586 66.867C62.4046 66.8417 64.6119 66.819 66.1621 66.8029L66.1259 63.3031ZM66.3687 63.3006L66.1259 63.3031L66.1621 66.803L66.4049 66.8004L66.3687 63.3006ZM67.6826 63.2871L66.3688 63.3006L66.4048 66.8004L67.7186 66.7869L67.6826 63.2871ZM65.9407 64.5291C65.9441 64.7283 65.9475 64.9104 65.951 65.0737L69.4502 65.0004C69.4469 64.8424 69.4435 64.6649 69.4402 64.4689L65.9407 64.5291ZM65.8861 60.0543C65.9045 61.9544 65.9229 63.4935 65.9407 64.529L69.4402 64.4689C69.4226 63.4472 69.4043 61.9189 69.386 60.0205L65.8861 60.0543ZM65.7805 45.3406C65.8124 50.9786 65.8494 56.2516 65.8861 60.0543L69.386 60.0205C69.3493 56.2246 69.3124 50.9569 69.2805 45.3208L65.7805 45.3406ZM65.6895 21.6513C65.698 28.0233 65.7338 37.0784 65.7805 45.3406L69.2805 45.3208C69.2338 37.0617 69.1979 28.012 69.1895 21.6466L65.6895 21.6513ZM67.4395 19.899H12.6478V23.399H67.4395V19.899ZM69.1878 21.649H69.349V18.149H69.1878V21.649ZM69.349 21.649C70.9861 21.649 72.3132 20.3218 72.3132 18.6847H68.8132C68.8132 18.3888 69.0531 18.149 69.349 18.149V21.649ZM72.3132 18.6847C72.3132 17.0476 70.9861 15.7205 69.349 15.7205V19.2205C69.0531 19.2205 68.8132 18.9806 68.8132 18.6847H72.3132ZM69.349 15.7205H69.1884V19.2205H69.349V15.7205ZM70.9378 19.898C70.9373 19.0157 70.9375 18.2033 70.9384 17.4727L67.4384 17.4683C67.4375 18.2014 67.4373 19.016 67.4378 19.8999L70.9378 19.898ZM14.0023 17.4705H66.4976V13.9705H14.0023V17.4705ZM15.0493 17.1228C15.5861 16.7219 16.2146 16.2697 16.902 15.7968L14.9183 12.9133C14.1942 13.4114 13.529 13.8899 12.9554 14.3182L15.0493 17.1228ZM16.902 15.7968C19.0785 14.2995 21.6805 12.7098 23.7738 11.8418L22.4332 8.60875C19.9975 9.61876 17.1557 11.3741 14.9183 12.9133L16.902 15.7968ZM23.1763 11.9738C26.1364 11.8505 31.7926 11.9165 38.002 11.9896L38.0432 8.48982C31.8908 8.41737 26.1099 8.34862 23.0307 8.4768L23.1763 11.9738ZM38.0021 11.9896L38.9916 12.0012L39.0327 8.50144L38.0432 8.48981L38.0021 11.9896ZM38.9917 12.0012C45.4968 12.0773 52.4243 12.1492 57.0308 11.9896L56.9096 8.49166C52.4025 8.64784 45.568 8.57791 39.0326 8.50144L38.9917 12.0012ZM56.1085 11.7638C57.6097 12.613 58.8754 13.3212 59.9613 13.9286L61.6701 10.8742C60.5843 10.2667 59.3251 9.5622 57.8318 8.71744L56.1085 11.7638ZM59.9566 13.926L59.9573 13.9264L61.6755 10.8772L61.6748 10.8768L59.9566 13.926ZM59.962 13.929C62.6604 15.4387 64.199 16.3007 65.534 17.1813L67.4612 14.2596C65.9951 13.2926 64.3272 12.3607 61.6709 10.8746L59.962 13.929ZM9.29104 65.3368L9.29091 65.3378L12.7594 65.8063L12.7595 65.8053L9.29104 65.3368ZM9.3134 65.2077L9.3118 65.2155L12.7388 65.9267L12.7404 65.9189L9.3134 65.2077ZM12.737 65.9359C12.7434 65.906 12.7479 65.8809 12.7505 65.8663L9.30332 65.2604C9.30425 65.2551 9.30548 65.2482 9.30702 65.2402C9.30841 65.2329 9.31079 65.2207 9.31408 65.2052L12.737 65.9359ZM9.35297 66.088C9.38326 66.1862 9.47673 66.4685 9.72652 66.7451C10.0416 67.0939 10.6007 67.4078 11.2909 67.3017C11.8276 67.2193 12.1524 66.9185 12.2553 66.8167C12.387 66.6866 12.4682 66.5644 12.5048 66.5065C12.581 66.3858 12.6247 66.2828 12.6384 66.2502C12.6579 66.2039 12.6715 66.1659 12.679 66.1441C12.7042 66.0714 12.719 66.012 12.7206 66.0058C12.7294 65.9713 12.7353 65.9439 12.7369 65.936L9.3141 65.2052C9.31557 65.1983 9.32124 65.1717 9.32995 65.1377C9.33147 65.1317 9.34623 65.0725 9.37138 64.9998C9.37889 64.9781 9.39247 64.9401 9.41194 64.8938C9.42566 64.8612 9.46934 64.7582 9.54558 64.6375C9.58215 64.5796 9.66338 64.4574 9.79502 64.3273C9.89797 64.2256 10.2227 63.9248 10.7594 63.8423C11.4496 63.7363 12.0087 64.0502 12.3238 64.399C12.5736 64.6755 12.6671 64.9578 12.6973 65.056L9.35297 66.088Z" fill="white" mask="url(#path-1-outside-1_2296_1164)"/>
<path d="M57.1743 9.35771C60.3206 9.69348 23.0375 9.33284 22.9131 9.97951C22.938 8.77322 11.5093 16.3716 11.4222 16.7447C11.6088 16.782 11.6212 18.4733 11.7456 18.4733C11.6212 19.0951 68.9512 19.8413 68.3169 18.4733C67.7076 18.4733 68.292 16.0358 68.3169 15.9115C68.3418 16.2473 57.1867 9.39502 57.1867 9.34528L57.1743 9.35771Z" fill="#F8BFB7"/>
<path d="M60.2459 17.2421C63.3923 17.5779 23.0623 16.583 22.938 17.2421C22.9628 16.0358 11.5093 16.3716 11.4222 16.7571C12.1187 16.8815 12.3425 66.2026 11.8451 65.8296C12.3301 66.5881 68.4661 65.9042 68.6154 65.9166C68.491 66.1156 67.6702 17.7396 67.7075 17.2546C67.7324 17.5903 60.2584 17.3043 60.2459 17.2546V17.2421Z" fill="#FFF8E2"/>
<path d="M11.7456 16.6203L23.5598 9.15872H56.5152L68.3294 16.6203H11.7456Z" fill="#F8BFB7"/>
<path fill-rule="evenodd" clip-rule="evenodd" d="M39.0326 8.50144C45.6832 8.57926 52.6414 8.65024 57.1418 8.48333C57.1526 8.48293 57.1634 8.48273 57.1743 8.48273H57.1867C57.3378 8.48273 57.4863 8.52186 57.6178 8.59631C59.1593 9.46913 60.4639 10.1988 61.5907 10.8291C65.1642 12.8279 66.9501 13.8269 68.8367 15.2201C69.0609 15.3857 69.1929 15.6482 69.1919 15.927C69.1733 21.3072 69.2168 34.0473 69.2805 45.3208C69.3124 50.9569 69.3493 56.2246 69.386 60.0205C69.4043 61.9189 69.4226 63.4472 69.4402 64.4689C69.449 64.9811 69.4575 65.3607 69.4656 65.595C69.4673 65.6457 69.469 65.6865 69.4704 65.7185C69.4912 65.8142 69.496 65.9136 69.4836 66.0127L69.4836 66.0129C69.4831 66.0179 69.4732 66.1103 69.4374 66.2117C69.4235 66.2484 69.3804 66.3396 69.3487 66.3933C69.2837 66.482 69.0498 66.6794 68.8687 66.7585C68.7763 66.7723 68.6616 66.7662 68.5451 66.7474L68.5427 66.7762C68.5909 66.7802 68.6381 66.7788 68.5719 66.7791L68.4479 66.78C68.3381 66.7809 68.1768 66.7824 67.9672 66.7845C67.5844 66.7882 67.0421 66.7938 66.3606 66.8009L66.1621 66.803C64.6119 66.819 62.4046 66.8417 59.7586 66.867C54.4667 66.9175 47.4191 66.9781 40.3608 67.0155C33.3032 67.0528 26.2314 67.0668 20.892 67.024C18.2236 67.0026 15.9812 66.967 14.3877 66.9127C13.5931 66.8856 12.9478 66.8535 12.4879 66.8149C12.261 66.7959 12.0591 66.7738 11.9002 66.7462C11.8237 66.7328 11.7296 66.7137 11.6377 66.6838C11.5924 66.6691 11.5228 66.6439 11.4471 66.6026C11.3884 66.5705 11.229 66.478 11.1079 66.2885C10.9489 66.0399 10.9299 65.7368 11.0382 65.4785C11.0438 65.4279 11.0504 65.3574 11.0574 65.2636C11.0814 64.9429 11.1037 64.4481 11.1237 63.7941C11.1635 62.4908 11.1928 60.6021 11.2118 58.3172C11.2499 53.7495 11.2468 47.62 11.2064 41.4732C11.166 35.3261 11.0883 29.1666 10.9773 24.5382C10.9218 22.2226 10.8581 20.2974 10.787 18.9504C10.7513 18.2745 10.7144 17.7578 10.6773 17.4144C10.6638 17.2893 10.6515 17.1997 10.6416 17.1399C10.5492 16.9574 10.5232 16.7471 10.5701 16.5459C10.6155 16.3513 10.718 16.2133 10.744 16.1784C10.7447 16.1774 10.7454 16.1765 10.746 16.1756C10.7894 16.117 10.836 16.0645 10.875 16.023C10.9546 15.938 11.054 15.8441 11.1616 15.7476C11.38 15.5519 11.681 15.3025 12.0427 15.0172C12.7688 14.4445 13.7715 13.7022 14.9183 12.9133C17.1992 11.3441 20.1131 9.54693 22.5848 8.54663C22.6768 8.50941 22.7745 8.4881 22.8736 8.48362C25.903 8.34673 31.7518 8.41566 37.9932 8.48922C38.3386 8.49329 38.6852 8.49738 39.0326 8.50144ZM10.6274 17.0673C10.6274 17.0672 10.6277 17.0684 10.6283 17.0708C10.6277 17.0686 10.6274 17.0673 10.6274 17.0673ZM11.0252 65.572C11.0251 65.5719 11.0257 65.5688 11.0269 65.5633C11.0258 65.5694 11.0252 65.5722 11.0252 65.572ZM12.8225 65.0856C13.2264 65.1146 13.7719 65.1407 14.4474 65.1637C16.0173 65.2172 18.2413 65.2527 20.9061 65.2741C26.2333 65.3168 33.2957 65.3028 40.3515 65.2655C47.4064 65.2282 54.4512 65.1676 59.7419 65.1171C62.3872 65.0918 64.5939 65.0691 66.144 65.053L66.3868 65.0505C66.9121 65.0451 67.3534 65.0405 67.7006 65.037C67.6972 64.8764 67.6938 64.6966 67.6904 64.499C67.6728 63.4704 67.6544 61.9367 67.6361 60.0374C67.5993 56.2381 67.5624 50.9678 67.5305 45.3307C67.4685 34.3589 67.4256 21.9903 67.4405 16.3685C65.7765 15.1768 64.1084 14.2436 60.8164 12.4018C59.7305 11.7942 58.4678 11.0878 56.9702 10.2406C52.4134 10.3985 45.5324 10.3276 39.0121 10.2513C38.6812 10.2474 38.3513 10.2436 38.0226 10.2397C31.8417 10.1669 26.1232 10.0996 23.1035 10.2253C20.839 11.1643 18.1171 12.8368 15.9101 14.355C14.7905 15.1253 13.8189 15.845 13.1265 16.3912C12.8157 16.6364 12.5674 16.8416 12.3896 16.9977C12.3995 17.0706 12.4086 17.1473 12.4172 17.2264C12.4596 17.6189 12.4984 18.1743 12.5345 18.8582C12.607 20.2308 12.6712 22.1762 12.7268 24.4962C12.8381 29.1389 12.9159 35.3096 12.9563 41.4617C12.9968 47.6141 12.9999 53.7527 12.9618 58.3317C12.9427 60.6202 12.9133 62.5244 12.8729 63.8475C12.8579 64.3382 12.8412 64.7555 12.8225 65.0856Z" fill="#222222"/>
<path d="M51.7272 61.8749H28.9694V41.2312C28.9694 36.8786 31.4441 32.9115 35.3615 31.0088C38.5078 29.4791 42.1888 29.4791 45.3351 31.0088C49.24 32.9115 51.7272 36.891 51.7272 41.2312V61.8749Z" fill="#EDDFDA"/>
<path d="M35.9086 62.248V52.9832C35.9086 50.5333 37.8983 48.5435 40.3482 48.5435C42.7981 48.5435 44.7879 50.5333 44.7879 52.9832V62.248H35.9086Z" fill="#CEA99B"/>
<path fill-rule="evenodd" clip-rule="evenodd" d="M40.3482 49.4185C38.3816 49.4185 36.7836 51.0165 36.7836 52.9832V61.373H43.9129V52.9832C43.9129 51.0165 42.3149 49.4185 40.3482 49.4185ZM35.0336 52.9832C35.0336 50.05 37.4151 47.6685 40.3482 47.6685C43.2814 47.6685 45.6629 50.05 45.6629 52.9832V62.248C45.6629 62.7312 45.2711 63.123 44.7879 63.123H35.9086C35.4253 63.123 35.0336 62.7312 35.0336 62.248V52.9832Z" fill="#222222"/>
<path d="M57.5472 66.3146H23.1368V70.7542H57.5472V66.3146Z" fill="#E0C9C1"/>
<path fill-rule="evenodd" clip-rule="evenodd" d="M40.3481 47.6685C40.8314 47.6685 41.2231 48.0603 41.2231 48.5435V61.8749C41.2231 62.3582 40.8314 62.7499 40.3481 62.7499C39.8649 62.7499 39.4731 62.3582 39.4731 61.8749V48.5435C39.4731 48.0603 39.8649 47.6685 40.3481 47.6685Z" fill="#1F2020"/>
<path d="M53.1074 61.8749H27.5763V66.3146H53.1074V61.8749Z" fill="#CEA99B"/>
<path fill-rule="evenodd" clip-rule="evenodd" d="M44.9518 31.7954C42.0653 30.3923 38.6907 30.3837 35.7982 31.7696L34.9792 30.2217C38.3669 28.5748 42.33 28.5748 45.7177 30.2218L45.7184 30.2222C49.9241 32.2714 52.6022 36.5562 52.6022 41.2312V60.9999H53.1073C53.5906 60.9999 53.9823 61.3917 53.9823 61.8749V65.4396H57.5472C58.0305 65.4396 58.4222 65.8313 58.4222 66.3146V70.7542C58.4222 71.2374 58.0305 71.6292 57.5472 71.6292H23.1368C22.6536 71.6292 22.2618 71.2374 22.2618 70.7542V66.3146C22.2618 65.8313 22.6536 65.4396 23.1368 65.4396H26.7012V61.8749C26.7012 61.3917 27.093 60.9999 27.5762 60.9999H28.0944V41.2312C28.0944 36.5447 30.7593 32.2715 34.9789 30.2218L35.7979 31.7697L35.744 31.7957L35.7438 31.7958C32.1288 33.5517 29.8444 37.2125 29.8444 41.2312V60.9999H50.8522V60.2212V60.2212V41.2312C50.8522 37.2257 48.556 33.5515 44.9518 31.7954ZM50.8522 60.2212L35.7979 31.7697L35.7982 31.7696L50.8522 60.2212ZM28.9694 62.7499H28.4512V65.4396H52.2323V62.7499H51.7272H28.9694ZM27.5762 67.1896H24.0118V69.8792H56.6722V67.1896H53.1073H27.5762Z" fill="#222222"/>
<path d="M62.4593 39.9378H58.0197V49.9239H62.4593V39.9378Z" fill="white"/>
<path d="M22.3658 39.9378H17.9261V49.9239H22.3658V39.9378Z" fill="white"/>
<path fill-rule="evenodd" clip-rule="evenodd" d="M58.0196 39.0628C57.5363 39.0628 57.1446 39.4546 57.1446 39.9378V49.2537C56.747 49.3362 56.4482 49.6884 56.4482 50.1105C56.4482 50.5937 56.84 50.9855 57.3232 50.9855H63.1557C63.639 50.9855 64.0307 50.5937 64.0307 50.1105C64.0307 49.6884 63.7319 49.3361 63.3342 49.2537V39.9378C63.3342 39.4546 62.9425 39.0628 62.4592 39.0628H58.0196ZM58.8946 49.0489V40.8128H61.5842V49.0489H58.8946Z" fill="#1F2020"/>
<path fill-rule="evenodd" clip-rule="evenodd" d="M17.9261 39.0628C17.4429 39.0628 17.0511 39.4546 17.0511 39.9378V49.2537C16.6535 49.3361 16.3546 49.6884 16.3546 50.1105C16.3546 50.5937 16.7464 50.9855 17.2296 50.9855H23.0621C23.5453 50.9855 23.9371 50.5937 23.9371 50.1105C23.9371 49.6885 23.6383 49.3362 23.2408 49.2537V39.9378C23.2408 39.4546 22.849 39.0628 22.3658 39.0628H17.9261ZM18.8011 49.0489V40.8128H21.4908V49.0489H18.8011Z" fill="#1F2020"/>
<path d="M69.349 16.5955H11.3475C10.1937 16.5955 9.2583 17.5308 9.2583 18.6847C9.2583 19.8386 10.1937 20.774 11.3475 20.774H69.349C70.5029 20.774 71.4382 19.8386 71.4382 18.6847C71.4382 17.5308 70.5029 16.5955 69.349 16.5955Z" fill="#FBDDD9"/>
<path fill-rule="evenodd" clip-rule="evenodd" d="M11.3475 17.4705C10.6769 17.4705 10.1333 18.0141 10.1333 18.6847C10.1333 19.3553 10.6769 19.899 11.3475 19.899H69.349C70.0196 19.899 70.5632 19.3553 70.5632 18.6847C70.5632 18.0141 70.0196 17.4705 69.349 17.4705H11.3475ZM8.3833 18.6847C8.3833 17.0476 9.71044 15.7205 11.3475 15.7205H69.349C70.9861 15.7205 72.3132 17.0476 72.3132 18.6847C72.3132 20.3218 70.9861 21.649 69.349 21.649H11.3475C9.71044 21.649 8.3833 20.3218 8.3833 18.6847Z" fill="#222222"/>
<path d="M22.3658 27.5018H17.9261V32.5135H22.3658V27.5018Z" fill="white"/>
<path fill-rule="evenodd" clip-rule="evenodd" d="M17.9261 26.6268C17.4429 26.6268 17.0511 27.0186 17.0511 27.5018V31.8433C16.6535 31.9257 16.3546 32.278 16.3546 32.7001C16.3546 33.1834 16.7464 33.5751 17.2296 33.5751H23.0621C23.5453 33.5751 23.9371 33.1834 23.9371 32.7001C23.9371 32.2781 23.6383 31.9259 23.2408 31.8434V27.5018C23.2408 27.0186 22.849 26.6268 22.3658 26.6268H17.9261ZM18.8011 31.6385V28.3768H21.4908V31.6385H18.8011Z" fill="#1F2020"/>
<path d="M62.4593 27.5018H58.0197V32.5135H62.4593V27.5018Z" fill="white"/>
<path fill-rule="evenodd" clip-rule="evenodd" d="M58.0196 26.6268C57.5363 26.6268 57.1446 27.0186 57.1446 27.5018V31.8434C56.747 31.9258 56.4482 32.2781 56.4482 32.7001C56.4482 33.1834 56.84 33.5751 57.3232 33.5751H63.1557C63.639 33.5751 64.0307 33.1834 64.0307 32.7001C64.0307 32.278 63.7319 31.9258 63.3342 31.8433V27.5018C63.3342 27.0186 62.9425 26.6268 62.4592 26.6268H58.0196ZM58.8946 31.6385V28.3768H61.5842V31.6385H58.8946Z" fill="#1F2020"/>
</svg>
