<svg width="80" height="80" viewBox="0 0 80 80" fill="none" xmlns="http://www.w3.org/2000/svg">
    <mask id="path-1-outside-1_2933_1744" maskUnits="userSpaceOnUse" x="27.865" y="10.125" width="38" height="25" fill="black">
        <rect fill="white" x="27.865" y="10.125" width="38" height="25"/>
        <path fill-rule="evenodd" clip-rule="evenodd" d="M41.6254 12.125C38.5023 12.125 35.7715 14.2301 34.9767 17.2504L30.865 32.875H63.1643L58.5944 17.0884C57.7434 14.1483 55.0513 12.125 51.9906 12.125H41.6254Z"/>
    </mask>
    <path fill-rule="evenodd" clip-rule="evenodd" d="M41.6254 12.125C38.5023 12.125 35.7715 14.2301 34.9767 17.2504L30.865 32.875H63.1643L58.5944 17.0884C57.7434 14.1483 55.0513 12.125 51.9906 12.125H41.6254Z" fill="white"/>
    <path d="M34.9767 17.2504L36.6691 17.6957L34.9767 17.2504ZM30.865 32.875L29.1726 32.4296L28.5949 34.625H30.865V32.875ZM63.1643 32.875V34.625H65.4927L64.8452 32.3884L63.1643 32.875ZM58.5944 17.0884L60.2754 16.6018L60.2754 16.6017L58.5944 17.0884ZM36.6691 17.6957C37.2616 15.4442 39.2972 13.875 41.6254 13.875V10.375C37.7073 10.375 34.2815 13.0159 33.2844 16.805L36.6691 17.6957ZM32.5574 33.3204L36.6691 17.6957L33.2844 16.805L29.1726 32.4296L32.5574 33.3204ZM63.1643 31.125H30.865V34.625H63.1643V31.125ZM56.9135 17.575L61.4833 33.3616L64.8452 32.3884L60.2754 16.6018L56.9135 17.575ZM51.9906 13.875C54.2722 13.875 56.279 15.3833 56.9135 17.575L60.2754 16.6017C59.2077 12.9134 55.8304 10.375 51.9906 10.375V13.875ZM41.6254 13.875H51.9906V10.375H41.6254V13.875Z" fill="white" mask="url(#path-1-outside-1_2933_1744)"/>
    <mask id="path-3-outside-2_2933_1744" maskUnits="userSpaceOnUse" x="0" y="19" width="79" height="51" fill="black">
        <rect fill="white" y="19" width="79" height="51"/>
        <path fill-rule="evenodd" clip-rule="evenodd" d="M33.7786 21C33.3508 21 32.9248 21.0549 32.5111 21.1633L18.4334 24.8527C17.6978 24.3128 16.7701 24 15.8 24H6.2C3.98998 24 2 25.6234 2 27.8571V62.1429C2 64.3766 3.98998 66 6.2 66H15.8C16.8552 66 17.8603 65.6299 18.6225 65H35.4913C38.6773 66.8545 42.3813 67.9167 46.3333 67.9167C50.2854 67.9167 53.9894 66.8545 57.1753 65H70.9123C73.7562 65 76.2069 62.9978 76.774 60.211L77 59.1007V31.5113C77 28.394 74.9385 25.6523 71.9438 24.7866L59.5237 21.1966C59.0724 21.0662 58.605 21 58.1353 21H33.7786Z"/>
    </mask>
    <path fill-rule="evenodd" clip-rule="evenodd" d="M33.7786 21C33.3508 21 32.9248 21.0549 32.5111 21.1633L18.4334 24.8527C17.6978 24.3128 16.7701 24 15.8 24H6.2C3.98998 24 2 25.6234 2 27.8571V62.1429C2 64.3766 3.98998 66 6.2 66H15.8C16.8552 66 17.8603 65.6299 18.6225 65H35.4913C38.6773 66.8545 42.3813 67.9167 46.3333 67.9167C50.2854 67.9167 53.9894 66.8545 57.1753 65H70.9123C73.7562 65 76.2069 62.9978 76.774 60.211L77 59.1007V31.5113C77 28.394 74.9385 25.6523 71.9438 24.7866L59.5237 21.1966C59.0724 21.0662 58.605 21 58.1353 21H33.7786Z" fill="white"/>
    <path d="M32.5111 21.1633L32.0674 19.4705L32.0674 19.4705L32.5111 21.1633ZM18.4334 24.8527L17.3979 26.2635C17.8232 26.5756 18.3667 26.6792 18.877 26.5455L18.4334 24.8527ZM18.6225 65V63.25C18.2156 63.25 17.8214 63.3918 17.5077 63.651L18.6225 65ZM35.4913 65L36.3717 63.4876C36.1044 63.332 35.8006 63.25 35.4913 63.25V65ZM57.1753 65V63.25C56.866 63.25 56.5623 63.332 56.295 63.4876L57.1753 65ZM76.774 60.211L75.0592 59.862L76.774 60.211ZM77 59.1007L78.7149 59.4497C78.7382 59.3349 78.75 59.2179 78.75 59.1007H77ZM71.9438 24.7866L72.4297 23.1054L71.9438 24.7866ZM59.5237 21.1966L59.0377 22.8778L59.0377 22.8778L59.5237 21.1966ZM32.9547 22.8562C33.2237 22.7857 33.5005 22.75 33.7786 22.75V19.25C33.2011 19.25 32.626 19.3241 32.0674 19.4705L32.9547 22.8562ZM18.877 26.5455L32.9547 22.8562L32.0674 19.4705L17.9897 23.1598L18.877 26.5455ZM15.8 25.75C16.3983 25.75 16.9631 25.9444 17.3979 26.2635L19.4688 23.4419C18.4324 22.6812 17.1418 22.25 15.8 22.25V25.75ZM6.2 25.75H15.8V22.25H6.2V25.75ZM3.75 27.8571C3.75 26.784 4.75016 25.75 6.2 25.75V22.25C3.2298 22.25 0.25 24.4627 0.25 27.8571H3.75ZM3.75 62.1429V27.8571H0.25V62.1429H3.75ZM6.2 64.25C4.75016 64.25 3.75 63.216 3.75 62.1429H0.25C0.25 65.5373 3.2298 67.75 6.2 67.75V64.25ZM15.8 64.25H6.2V67.75H15.8V64.25ZM17.5077 63.651C17.0621 64.0192 16.4522 64.25 15.8 64.25V67.75C17.2582 67.75 18.6584 67.2406 19.7373 66.349L17.5077 63.651ZM35.4913 63.25H18.6225V66.75H35.4913V63.25ZM46.3333 66.1667C42.6988 66.1667 39.2976 65.1906 36.3717 63.4876L34.611 66.5124C38.057 68.5183 42.0637 69.6667 46.3333 69.6667V66.1667ZM56.295 63.4876C53.3691 65.1907 49.9678 66.1667 46.3333 66.1667V69.6667C50.6029 69.6667 54.6096 68.5183 58.0557 66.5124L56.295 63.4876ZM70.9123 63.25H57.1753V66.75H70.9123V63.25ZM75.0592 59.862C74.658 61.8335 72.9242 63.25 70.9123 63.25V66.75C74.5881 66.75 77.7559 64.162 78.4889 60.56L75.0592 59.862ZM75.2851 58.7517L75.0592 59.862L78.4889 60.56L78.7149 59.4497L75.2851 58.7517ZM75.25 31.5113V59.1007H78.75V31.5113H75.25ZM71.4578 26.4678C73.7039 27.117 75.25 29.1733 75.25 31.5113H78.75C78.75 27.6146 76.1732 24.1875 72.4297 23.1054L71.4578 26.4678ZM59.0377 22.8778L71.4578 26.4678L72.4297 23.1054L60.0096 19.5155L59.0377 22.8778ZM58.1353 22.75C58.4406 22.75 58.7444 22.793 59.0377 22.8778L60.0096 19.5155C59.4004 19.3394 58.7694 19.25 58.1353 19.25V22.75ZM33.7786 22.75H58.1353V19.25H33.7786V22.75Z" fill="white" mask="url(#path-3-outside-2_2933_1744)"/>
    <path d="M32.7646 22.1307L18 26V64H70.9123C73.2808 64 75.3218 62.3325 75.7941 60.0116L76 59V31.5113C76 28.8393 74.233 26.4893 71.6661 25.7473L59.246 22.1573C58.885 22.053 58.511 22 58.1353 22H33.7786C33.4364 22 33.0956 22.0439 32.7646 22.1307Z" fill="#737373"/>
    <path fill-rule="evenodd" clip-rule="evenodd" d="M33.7786 23C33.5219 23 33.2663 23.0329 33.0181 23.098L19 26.7717V63H70.9123C72.8053 63 74.4367 61.6672 74.8142 59.8122L75 58.8993V31.5113C75 29.2846 73.5275 27.3263 71.3884 26.708L58.9683 23.118C58.6975 23.0397 58.4171 23 58.1353 23H33.7786ZM32.5111 21.1633C32.9248 21.0549 33.3508 21 33.7786 21H58.1353C58.605 21 59.0724 21.0662 59.5237 21.1966L71.9438 24.7866C74.9385 25.6523 77 28.394 77 31.5113V59.1007L76.774 60.211C76.2069 62.9978 73.7562 65 70.9123 65H17V25.2283L32.5111 21.1633Z" fill="#222222"/>
    <path d="M15.8 25H6.2C4.43269 25 3 26.2792 3 27.8571V62.1429C3 63.7208 4.43269 65 6.2 65H15.8C17.5673 65 19 63.7208 19 62.1429V27.8571C19 26.2792 17.5673 25 15.8 25Z" fill="#515151"/>
    <path fill-rule="evenodd" clip-rule="evenodd" d="M6.2 26C4.8754 26 4 26.935 4 27.8571V62.1429C4 63.065 4.8754 64 6.2 64H15.8C17.1246 64 18 63.065 18 62.1429V27.8571C18 26.935 17.1246 26 15.8 26H6.2ZM2 27.8571C2 25.6234 3.98998 24 6.2 24H15.8C18.01 24 20 25.6234 20 27.8571V62.1429C20 64.3766 18.01 66 15.8 66H6.2C3.98998 66 2 64.3766 2 62.1429V27.8571Z" fill="#222222"/>
    <path d="M62 32H32L35.8229 17.473C36.5165 14.8372 38.8997 13 41.6253 13H51.9905C54.6617 13 57.0112 14.7658 57.7539 17.3317L62 32Z" fill="#737373"/>
    <path fill-rule="evenodd" clip-rule="evenodd" d="M34.9767 17.2504C35.7715 14.2301 38.5022 12.125 41.6253 12.125H51.9905C55.0512 12.125 57.7433 14.1483 58.5944 17.0884L63.1642 32.875H30.8649L34.9767 17.2504ZM41.6253 13.875C39.2972 13.875 37.2616 15.4442 36.6691 17.6957L33.1351 31.125H60.8358L56.9134 17.575C56.279 15.3833 54.2721 13.875 51.9905 13.875H41.6253Z" fill="#222222"/>
    <path d="M58.5 20H35.5L35.9837 17.7428C36.5765 14.9764 39.0213 13 41.8505 13H51.9742C54.6531 13 57.0074 14.7759 57.7433 17.3517L58.5 20Z" fill="#FFCC35"/>
    <path fill-rule="evenodd" clip-rule="evenodd" d="M35.1281 17.5595C35.8074 14.3896 38.6087 12.125 41.8505 12.125H51.9742C55.0437 12.125 57.7414 14.1598 58.5847 17.1113L59.66 20.875H34.4176L35.1281 17.5595ZM41.8505 13.875C39.4339 13.875 37.3456 15.5632 36.8393 17.9262L36.5824 19.125H57.34L56.902 17.5921C56.2734 15.3919 54.2624 13.875 51.9742 13.875H41.8505Z" fill="#222222"/>
    <path d="M46.3333 66.9167C57.7012 66.9167 66.9167 57.7012 66.9167 46.3333C66.9167 34.9655 57.7012 25.75 46.3333 25.75C34.9655 25.75 25.75 34.9655 25.75 46.3333C25.75 57.7012 34.9655 66.9167 46.3333 66.9167Z" fill="#CDCDCD"/>
    <path fill-rule="evenodd" clip-rule="evenodd" d="M46.3333 26.75C35.5178 26.75 26.75 35.5178 26.75 46.3333C26.75 57.1489 35.5178 65.9167 46.3333 65.9167C57.1489 65.9167 65.9167 57.1489 65.9167 46.3333C65.9167 35.5178 57.1489 26.75 46.3333 26.75ZM24.75 46.3333C24.75 34.4132 34.4132 24.75 46.3333 24.75C58.2535 24.75 67.9167 34.4132 67.9167 46.3333C67.9167 58.2535 58.2535 67.9167 46.3333 67.9167C34.4132 67.9167 24.75 58.2535 24.75 46.3333Z" fill="#222222"/>
    <path d="M46.25 60.5C54.1201 60.5 60.5 54.1201 60.5 46.25C60.5 38.3799 54.1201 32 46.25 32C38.3799 32 32 38.3799 32 46.25C32 54.1201 38.3799 60.5 46.25 60.5Z" fill="#A8EDF0"/>
    <path fill-rule="evenodd" clip-rule="evenodd" d="M46.25 33C38.9322 33 33 38.9322 33 46.25C33 53.5678 38.9322 59.5 46.25 59.5C53.5678 59.5 59.5 53.5678 59.5 46.25C59.5 38.9322 53.5678 33 46.25 33ZM31 46.25C31 37.8277 37.8277 31 46.25 31C54.6723 31 61.5 37.8277 61.5 46.25C61.5 54.6723 54.6723 61.5 46.25 61.5C37.8277 61.5 31 54.6723 31 46.25Z" fill="#222222"/>
</svg>
