<?xml version="1.0" encoding="UTF-8"?>
<!DOCTYPE svg  PUBLIC '-//W3C//DTD SVG 1.1//EN'  'http://www.w3.org/Graphics/SVG/1.1/DTD/svg11.dtd'>
<svg width="800px" height="800px" clip-rule="evenodd" fill="#000000" fill-rule="evenodd" stroke-linejoin="round" stroke-miterlimit="2" version="1.1" viewBox="0 -120 420 420" xml:space="preserve" xmlns="http://www.w3.org/2000/svg">
    <g transform="matrix(1.27 0 0 1.27 -529.96 -597.24)" fill-rule="nonzero">
        <path d="m443.59 587.35 10.835-27.004h34.915l11.413 26.336" fill="#5c5f60"/>
        <path d="m635.09 587.35 10.835-27.004h34.915l11.413 26.336" fill="#5c5f60"/>
        <path d="m443.59 588.85 10.835-27.003h34.915l11.413 26.336" fill="#5c5f60"/>
        <path d="m635.09 588.85 10.835-27.003h34.915l11.413 26.336" fill="#5c5f60"/>
        <path d="m429.56 592.98-9.375-51.38 75.51-12.25 65.333-37.585h157.27l26.638 42.585-9.375 58.577-42.652 8e-3 -11.223-25.772h-34.625l-10.541 25.855-134.5-1e-3 -11.25-25.667-34.834-0.25-10.668 25.834-15.707 0.046z" fill="#e4e2dc"/>
        <path d="m447.09 588.84-17.48 3.557 0.125 0.593 15.774 9e-3" fill="#f3f2ec"/>
        <path d="m735.7 592.92-42.656 0.01-11.172-25.744-34.832-0.062-8.418 25.817-136.88 0.03-11.08-25.64-34.667-0.248-10.751 26.251-15.583-0.083-9.167-51.753 75.625-12.375 35.836-0.125 206.12 49.313-2.375 14.609z" fill="#f3f2ec"/>
        <path d="m745.07 534.24-2.234 14.391-21.934 0.013-5.426-14.529 29.594 0.125z" fill="#ad2125"/>
        <path d="m453.68 545.98-1.083 14.458-28.823 0.014-2.625-14.511 32.531 0.039z" fill="#f6f1e1"/>
        <path d="m745.11 534.18-0.62 4.026-27.505-0.042-1.516-4.062 29.641 0.078z" fill="#fec"/>
        <path d="m506.1 529.1 56.751-33.504h114.14l19.346 32.837-190.24 0.667z" fill="#313156"/>
        <path d="m720.84 495.6-17.094-2e-3 36.764 31.375-19.67-31.373z" fill="#313156"/>
        <path d="m604.55 493.22 3.778 1.172-7.58 44.669-4.006-0.834 7.808-45.007z" fill="#e4e2dc"/>
        <path d="m531.59 524.72 0.396 4.292 5.021-0.021-0.501-4.977-4.916 0.706z" fill="#c0bdba"/>
        <path d="m531.59 524.72-0.75-7.875 14.75-2.75 1.875 10.75-15.875-0.125z" fill="#e4e2dc"/>
        <path d="m487.01 591.64c0 7.801-6.324 14.125-14.125 14.125s-14.125-6.324-14.125-14.125 6.324-14.125 14.125-14.125 14.125 6.324 14.125 14.125" fill="#e3e1db"/>
        <path d="m473.42 604.21c-7.021 0-12.712-5.691-12.712-12.711s5.691-12.712 12.712-12.712 12.712 5.692 12.712 12.712-5.691 12.711-12.712 12.711m0-33.212c-11.322 0-20.5 9.179-20.5 20.5s9.178 20.5 20.5 20.5 20.5-9.179 20.5-20.5-9.178-20.5-20.5-20.5" fill="#2a2b2a"/>
        <path d="m678.67 591.64c0 7.801-6.324 14.125-14.125 14.125s-14.125-6.324-14.125-14.125 6.324-14.125 14.125-14.125 14.125 6.324 14.125 14.125" fill="#e3e1db"/>
        <path d="m665.09 604.21c-7.021 0-12.712-5.691-12.712-12.711s5.691-12.712 12.712-12.712 12.712 5.692 12.712 12.712-5.691 12.711-12.712 12.711m0-33.212c-11.322 0-20.5 9.179-20.5 20.5s9.178 20.5 20.5 20.5 20.5-9.179 20.5-20.5-9.178-20.5-20.5-20.5" fill="#2a2b2a"/>
    </g>
</svg>
