<svg width="80" height="80" viewBox="0 0 80 80" fill="none" xmlns="http://www.w3.org/2000/svg">
    <path fill-rule="evenodd" clip-rule="evenodd" d="M13.7832 18.8333C13.5594 18.728 13.3014 18.7223 13.0732 18.8176C10.0358 20.0864 7.46787 21.8106 5.65665 24.0961C3.83539 26.3942 2.81573 29.215 2.81573 32.5946V53.0378H2.625C2.14175 53.0378 1.75 53.4295 1.75 53.9128V59.8805C1.75 60.3638 2.14175 60.7555 2.625 60.7555H76.625C77.1082 60.7555 77.5 60.3638 77.5 59.8805V53.9128C77.5 53.4295 77.1082 53.0378 76.625 53.0378H74.8694C75.3683 52.5077 75.674 51.7937 75.674 51.0083V50.7101C75.674 49.0742 74.3478 47.748 72.7119 47.748H71.2597C71.8299 47.2082 72.1856 46.444 72.1856 45.5968V45.2986C72.1856 44.4514 71.8299 43.6873 71.2597 43.1474H72.7119C74.3478 43.1474 75.674 41.8212 75.674 40.1854V39.8872C75.674 38.2513 74.3478 36.9251 72.7119 36.9251H53.5557C51.9198 36.9251 50.5936 38.2513 50.5936 39.8872V40.1854C50.5936 41.0326 50.9493 41.7967 51.5195 42.3366H50.0673C48.4314 42.3366 47.1052 43.6627 47.1052 45.2986V45.5968C47.1052 47.2327 48.4314 48.5588 50.0673 48.5588H51.5195C50.9493 49.0987 50.5936 49.8629 50.5936 50.7101V51.0083C50.5936 51.7937 50.8993 52.5077 51.3982 53.0378H41.8346V45.5641C41.8346 45.0809 41.4429 44.6891 40.9596 44.6891C39.654 44.6891 38.5997 43.6349 38.5997 42.3292V42.3143C38.5997 41.0086 39.654 39.9544 40.9596 39.9544C41.4429 39.9544 41.8346 39.5626 41.8346 39.0794V32.5946C41.8346 32.2376 41.6209 31.9306 41.3144 31.7945L13.7832 18.8333Z" fill="white"/>
    <path fill-rule="evenodd" clip-rule="evenodd" d="M12.3987 17.2028C13.0834 16.9168 13.8572 16.934 14.5285 17.25L42.0471 30.2052C42.9509 30.6168 43.5846 31.5298 43.5846 32.5946V39.0794C43.5846 40.5291 42.4094 41.7044 40.9596 41.7044C40.6205 41.7044 40.3497 41.9751 40.3497 42.3143V42.3292C40.3497 42.6684 40.6205 42.9391 40.9596 42.9391C42.4094 42.9391 43.5846 44.1144 43.5846 45.5641V51.2878H48.8518C48.8464 51.1953 48.8436 51.1021 48.8436 51.0083V50.7101C48.8436 50.523 48.8546 50.3384 48.8759 50.1569C46.8503 49.6292 45.3552 47.7876 45.3552 45.5968V45.2986C45.3552 43.1078 46.8503 41.2662 48.8759 40.7385C48.8546 40.557 48.8436 40.3724 48.8436 40.1854V39.8872C48.8436 37.2848 50.9533 35.1751 53.5557 35.1751H72.7119C75.3143 35.1751 77.424 37.2848 77.424 39.8872V40.1854C77.424 42.3761 75.9289 44.2177 73.9033 44.7455C73.9246 44.927 73.9356 45.1115 73.9356 45.2986V45.5968C73.9356 45.7839 73.9246 45.9685 73.9033 46.15C75.9289 46.6777 77.424 48.5193 77.424 50.7101V51.0083C77.424 51.1423 77.4183 51.2751 77.4073 51.4063C78.475 51.7392 79.25 52.7355 79.25 53.9128V59.8805C79.25 61.3303 78.0747 62.5055 76.625 62.5055H2.625C1.17525 62.5055 0 61.3303 0 59.8805V53.9128C0 53.0469 0.419209 52.279 1.06573 51.8009V32.5946C1.06573 28.8363 2.20906 25.6288 4.28513 23.0091C6.33107 20.4275 9.17496 18.5494 12.3987 17.2028ZM2.81573 32.5946C2.81573 29.215 3.83539 26.3942 5.65665 24.0961C7.46787 21.8106 10.0358 20.0864 13.0732 18.8176C13.3014 18.7223 13.5594 18.728 13.7832 18.8333L41.3144 31.7945C41.6209 31.9306 41.8346 32.2376 41.8346 32.5946V39.0794C41.8346 39.5626 41.4429 39.9544 40.9596 39.9544C39.654 39.9544 38.5997 41.0086 38.5997 42.3143V42.3292C38.5997 43.6349 39.654 44.6891 40.9596 44.6891C41.4429 44.6891 41.8346 45.0809 41.8346 45.5641V53.0378H51.3982C50.9592 52.5713 50.6698 51.9624 50.6066 51.2878C50.598 51.1958 50.5936 51.1025 50.5936 51.0083V50.7101C50.5936 50.574 50.6028 50.4401 50.6206 50.3088C50.7134 49.6232 51.0409 49.012 51.5195 48.5588H50.0673C49.8386 48.5588 49.6159 48.5329 49.4021 48.4839C48.0865 48.182 47.1052 47.004 47.1052 45.5968V45.2986C47.1052 43.8914 48.0865 42.7134 49.4021 42.4116C49.6159 42.3625 49.8386 42.3366 50.0673 42.3366H51.5195C51.0409 41.8834 50.7134 41.2722 50.6206 40.5866C50.6028 40.4554 50.5936 40.3214 50.5936 40.1854V39.8872C50.5936 38.2513 51.9198 36.9251 53.5557 36.9251H72.7119C74.3478 36.9251 75.674 38.2513 75.674 39.8872V40.1854C75.674 41.5925 74.6927 42.7705 73.3771 43.0724C73.1633 43.1215 72.9406 43.1474 72.7119 43.1474H71.2597C71.7383 43.6006 72.0658 44.2117 72.1586 44.8974C72.1764 45.0286 72.1856 45.1626 72.1856 45.2986V45.5968C72.1856 45.7329 72.1764 45.8668 72.1586 45.998C72.0658 46.6837 71.7383 47.2949 71.2597 47.748H72.7119C72.9406 47.748 73.1633 47.774 73.3771 47.823C74.6927 48.1249 75.674 49.3029 75.674 50.7101V51.0083C75.674 51.1025 75.6696 51.1958 75.6609 51.2878C75.5978 51.9624 75.3084 52.5713 74.8694 53.0378H76.625C76.735 53.0378 76.8403 53.0581 76.9373 53.0952C77.2663 53.2209 77.5 53.5396 77.5 53.9128V59.8805C77.5 60.3638 77.1082 60.7555 76.625 60.7555H2.625C2.14175 60.7555 1.75 60.3638 1.75 59.8805V53.9128C1.75 53.4295 2.14175 53.0378 2.625 53.0378H2.81573V32.5946Z" fill="white"/>
    <path d="M72.7119 48.623H53.5557C52.403 48.623 51.4686 49.5575 51.4686 50.7101V51.0083C51.4686 52.1609 52.403 53.0953 53.5557 53.0953H72.7119C73.8646 53.0953 74.799 52.1609 74.799 51.0083V50.7101C74.799 49.5575 73.8646 48.623 72.7119 48.623Z" fill="#FFE092"/>
    <path fill-rule="evenodd" clip-rule="evenodd" d="M53.5557 49.498C52.8863 49.498 52.3436 50.0407 52.3436 50.7101V51.0083C52.3436 51.6777 52.8863 52.2203 53.5557 52.2203H72.7119C73.3813 52.2203 73.924 51.6777 73.924 51.0083V50.7101C73.924 50.0407 73.3813 49.498 72.7119 49.498H53.5557ZM50.5936 50.7101C50.5936 49.0742 51.9198 47.748 53.5557 47.748H72.7119C74.3478 47.748 75.674 49.0742 75.674 50.7101V51.0083C75.674 52.6442 74.3478 53.9703 72.7119 53.9703H53.5557C51.9198 53.9703 50.5936 52.6442 50.5936 51.0083V50.7101Z" fill="#1F2020"/>
    <path d="M40.9596 32.5946H3.69073C3.69073 26.2141 7.52198 22.0847 13.4105 19.625L40.9596 32.5946Z" fill="#FFBF53"/>
    <path fill-rule="evenodd" clip-rule="evenodd" d="M13.0732 18.8176C13.3014 18.7223 13.5594 18.728 13.7832 18.8333L41.3323 31.8029L40.9596 32.5946V33.4696H3.69073C3.20749 33.4696 2.81573 33.0778 2.81573 32.5946C2.81573 29.215 3.83539 26.3942 5.65665 24.0961C7.46787 21.8106 10.0358 20.0864 13.0732 18.8176ZM37.0467 31.7196L13.3929 20.5838C10.7062 21.7555 8.53876 23.2769 7.02818 25.183C5.61684 26.9639 4.74978 29.1161 4.59188 31.7196H37.0467Z" fill="#1F2020"/>
    <path d="M37.7247 42.3143C37.7247 40.5254 39.1707 39.0794 40.9596 39.0794V32.5946H3.69073V53.6589H40.9596V45.5641C39.1707 45.5641 37.7247 44.1181 37.7247 42.3292V42.3143Z" fill="#FFBF53"/>
    <path fill-rule="evenodd" clip-rule="evenodd" d="M2.81573 32.5946C2.81573 32.1113 3.20749 31.7196 3.69073 31.7196H40.9596C41.4429 31.7196 41.8346 32.1113 41.8346 32.5946V39.0794C41.8346 39.5626 41.4429 39.9544 40.9596 39.9544C39.654 39.9544 38.5997 41.0086 38.5997 42.3143V42.3292C38.5997 43.6349 39.654 44.6891 40.9596 44.6891C41.4429 44.6891 41.8346 45.0809 41.8346 45.5641V53.6589C41.8346 54.1422 41.4429 54.5339 40.9596 54.5339H3.69073C3.20749 54.5339 2.81573 54.1422 2.81573 53.6589V32.5946ZM4.56573 33.4696V52.7839H40.0846V46.3461C38.2337 45.9457 36.8497 44.301 36.8497 42.3292V42.3143C36.8497 40.3425 38.2337 38.6978 40.0846 38.2974V33.4696H4.56573Z" fill="#1F2020"/>
    <path d="M76.625 53.9128H2.625V59.8805H76.625V53.9128Z" fill="#80653C"/>
    <path fill-rule="evenodd" clip-rule="evenodd" d="M1.75 53.9128C1.75 53.4295 2.14175 53.0378 2.625 53.0378H76.625C77.1082 53.0378 77.5 53.4295 77.5 53.9128V59.8805C77.5 60.3638 77.1082 60.7555 76.625 60.7555H2.625C2.14175 60.7555 1.75 60.3638 1.75 59.8805V53.9128ZM3.5 54.7878V59.0055H75.75V54.7878H3.5Z" fill="#1F2020"/>
    <path d="M14.1559 40.7043C14.1559 42.046 13.1422 43.164 11.8005 43.164C10.4588 43.164 9.37054 42.046 9.37054 40.7043C9.37054 39.3626 10.4588 38.2893 11.8005 38.2893C13.1422 38.2893 14.1559 39.3626 14.1559 40.7043Z" fill="#F39C08"/>
    <path fill-rule="evenodd" clip-rule="evenodd" d="M11.8005 39.1643C10.935 39.1643 10.2455 39.8529 10.2455 40.7043C10.2455 41.5767 10.9559 42.289 11.8005 42.289C12.6101 42.289 13.2809 41.613 13.2809 40.7043C13.2809 39.8169 12.6305 39.1643 11.8005 39.1643ZM8.49554 40.7043C8.49554 38.8724 9.98258 37.4143 11.8005 37.4143C13.6538 37.4143 15.0309 38.9083 15.0309 40.7043C15.0309 42.4789 13.6742 44.039 11.8005 44.039C9.96174 44.039 8.49554 42.5153 8.49554 40.7043Z" fill="#1F2020"/>
    <path d="M15.4081 26.1098C15.4081 27.2279 14.5435 28.1074 13.4254 28.1074C12.3074 28.1074 11.398 27.2279 11.398 26.1098C11.398 24.9917 12.3074 24.1569 13.4254 24.1569C14.5435 24.1569 15.4081 24.9917 15.4081 26.1098Z" fill="#F39C08"/>
    <path fill-rule="evenodd" clip-rule="evenodd" d="M13.4254 25.0319C12.7471 25.0319 12.273 25.5174 12.273 26.1098C12.273 26.7278 12.7736 27.2324 13.4254 27.2324C14.0517 27.2324 14.5331 26.7532 14.5331 26.1098C14.5331 25.4924 14.0778 25.0319 13.4254 25.0319ZM10.523 26.1098C10.523 24.4661 11.8676 23.2819 13.4254 23.2819C15.0092 23.2819 16.2831 24.4911 16.2831 26.1098C16.2831 27.7025 15.0353 28.9824 13.4254 28.9824C11.8411 28.9824 10.523 27.728 10.523 26.1098Z" fill="#1F2020"/>
    <path d="M30.0026 39.0793C30.0026 40.1974 29.123 41.1664 28.005 41.1664C26.8869 41.1664 25.9328 40.1974 25.9328 39.0793C25.9328 37.9613 26.8869 36.9774 28.005 36.9774C29.123 36.9774 30.0026 37.9613 30.0026 39.0793Z" fill="#F39C08"/>
    <path fill-rule="evenodd" clip-rule="evenodd" d="M28.005 37.8524C27.3861 37.8524 26.8078 38.4284 26.8078 39.0793C26.8078 39.7223 27.3782 40.2914 28.005 40.2914C28.5908 40.2914 29.1276 39.7646 29.1276 39.0793C29.1276 38.3858 28.5831 37.8524 28.005 37.8524ZM25.0578 39.0793C25.0578 37.4942 26.3876 36.1024 28.005 36.1024C29.663 36.1024 30.8776 37.5368 30.8776 39.0793C30.8776 40.6302 29.6552 42.0414 28.005 42.0414C26.3956 42.0414 25.0578 40.6726 25.0578 39.0793Z" fill="#1F2020"/>
    <path d="M16.6753 45.7728C18.2405 45.7728 18.2405 43.3429 16.6753 43.3429C15.11 43.3429 15.11 45.7728 16.6753 45.7728Z" fill="#F39C08"/>
    <path d="M20.1189 29.1211C21.6842 29.1211 21.6842 26.6912 20.1189 26.6912C18.5536 26.6912 18.5536 29.1211 20.1189 29.1211Z" fill="#F39C08"/>
    <path d="M20.5661 38.9303C22.1314 38.9303 22.1314 36.5004 20.5661 36.5004C19.0008 36.5004 19.0008 38.9303 20.5661 38.9303Z" fill="#F39C08"/>
    <path d="M22.5488 46.0263C24.1141 46.0263 24.1141 43.5964 22.5488 43.5964C20.9836 43.5964 20.9836 46.0263 22.5488 46.0263Z" fill="#F39C08"/>
    <path d="M32.2686 46.0263C33.8339 46.0263 33.8339 43.5964 32.2686 43.5964C30.7033 43.5964 30.7033 46.0263 32.2686 46.0263Z" fill="#F39C08"/>
    <path d="M72.7119 37.8001H53.5557C52.403 37.8001 51.4686 38.7345 51.4686 39.8872V40.1853C51.4686 41.338 52.403 42.2724 53.5557 42.2724H72.7119C73.8646 42.2724 74.799 41.338 74.799 40.1853V39.8872C74.799 38.7345 73.8646 37.8001 72.7119 37.8001Z" fill="#FFE092"/>
    <path fill-rule="evenodd" clip-rule="evenodd" d="M53.5557 38.6751C52.8863 38.6751 52.3436 39.2178 52.3436 39.8872V40.1853C52.3436 40.8548 52.8863 41.3974 53.5557 41.3974H72.7119C73.3813 41.3974 73.924 40.8548 73.924 40.1853V39.8872C73.924 39.2178 73.3813 38.6751 72.7119 38.6751H53.5557ZM50.5936 39.8872C50.5936 38.2513 51.9198 36.9251 53.5557 36.9251H72.7119C74.3478 36.9251 75.674 38.2513 75.674 39.8872V40.1853C75.674 41.8212 74.3478 43.1474 72.7119 43.1474H53.5557C51.9198 43.1474 50.5936 41.8212 50.5936 40.1853V39.8872Z" fill="#1F2020"/>
    <path d="M69.2235 43.2116H50.0673C48.9146 43.2116 47.9802 44.146 47.9802 45.2986V45.5968C47.9802 46.7494 48.9146 47.6838 50.0673 47.6838H69.2235C70.3762 47.6838 71.3106 46.7494 71.3106 45.5968V45.2986C71.3106 44.146 70.3762 43.2116 69.2235 43.2116Z" fill="#FFE092"/>
    <path fill-rule="evenodd" clip-rule="evenodd" d="M50.0673 44.0866C49.3979 44.0866 48.8552 44.6292 48.8552 45.2986V45.5968C48.8552 46.2662 49.3979 46.8088 50.0673 46.8088H69.2235C69.8929 46.8088 70.4356 46.2662 70.4356 45.5968V45.2986C70.4356 44.6292 69.8929 44.0866 69.2235 44.0866H50.0673ZM47.1052 45.2986C47.1052 43.6627 48.4314 42.3366 50.0673 42.3366H69.2235C70.8594 42.3366 72.1856 43.6627 72.1856 45.2986V45.5968C72.1856 47.2327 70.8594 48.5588 69.2235 48.5588H50.0673C48.4314 48.5588 47.1052 47.2327 47.1052 45.5968V45.2986Z" fill="#1F2020"/>
</svg>
