<svg width="80" height="80" viewBox="0 0 80 80" fill="none" xmlns="http://www.w3.org/2000/svg">
<path d="M28.68 3.34998L29.84 3.44998C29.9481 3.46126 30.0505 3.50433 30.1341 3.57374C30.2178 3.64316 30.279 3.7358 30.31 3.83998L32.59 12.22L36.83 4.50998C36.8742 4.42742 36.9398 4.35832 37.02 4.30998C37.1005 4.25799 37.1942 4.23022 37.29 4.22998L38.59 4.34998L38.8 4.40998C38.8625 4.44915 38.9169 4.50009 38.96 4.55998C39.0037 4.61588 39.0344 4.68077 39.05 4.74998C39.0648 4.82256 39.0648 4.89739 39.05 4.96998C38.84 6.15998 38.66 7.35998 38.49 8.52998C38.22 10.33 37.94 12.2 37.55 14C37.27 15.26 36.89 16.49 36.55 17.68C36.21 18.87 35.84 19.93 35.55 21.09C35.92 21.98 36.9 25.7 39.98 43.27C41.86 49 48.6 66.83 61.44 70.61C61.8692 70.7437 62.2457 71.0085 62.5165 71.3672C62.7874 71.726 62.939 72.1606 62.95 72.61C62.9523 72.7185 62.917 72.8245 62.85 72.91C62.7888 72.994 62.7058 73.0597 62.61 73.1L61.1 73.68C61.0312 73.759 60.9677 73.8425 60.91 73.93C60.8154 74.0699 60.7119 74.2035 60.6 74.33C59.6419 75.1664 58.401 75.6062 57.13 75.56H56.33C55.8456 75.5583 55.3616 75.5316 54.88 75.48C54.56 75.48 54.29 75.42 54.04 75.42C53.6388 75.4114 53.2423 75.5079 52.89 75.7C52.7806 75.7513 52.6795 75.8187 52.59 75.9C52.4384 76.0361 52.2663 76.1474 52.08 76.23C51.5297 76.4624 50.9373 76.5782 50.34 76.57C49.7208 76.5978 49.1022 76.5027 48.52 76.29C48.1914 76.1661 47.893 75.9736 47.6447 75.7253C47.3964 75.477 47.2039 75.1786 47.08 74.85C47.0501 74.7556 47.0501 74.6543 47.08 74.56L46.53 74.48C46.09 74.41 45.64 74.34 45.25 74.26C44.5253 74.1219 43.8414 73.821 43.25 73.38H42.25C41.1263 73.3603 40.006 73.2499 38.9 73.05L38.15 72.93C37.7688 72.8799 37.3845 72.8566 37 72.86C36.0291 72.8814 35.062 72.9885 34.11 73.18C33.3291 73.3384 32.5364 73.4321 31.74 73.46C31.169 73.4711 30.6014 73.3691 30.07 73.16C28.9943 72.7147 27.8441 72.4772 26.68 72.46C25.5491 72.4889 24.4294 72.6912 23.36 73.06C23.04 73.15 22.74 73.24 22.44 73.31C22.0292 73.4211 21.6056 73.4783 21.18 73.48C20.6248 73.4669 20.079 73.3339 19.58 73.09C19.0846 72.8508 18.6451 72.5101 18.29 72.09C17.9839 71.7468 17.6263 71.4533 17.23 71.22C17.1654 71.1882 17.1076 71.144 17.06 71.09C17.0133 71.0346 16.9792 70.9698 16.96 70.9C16.9438 70.8309 16.9438 70.759 16.96 70.69C16.945 70.6242 16.945 70.5558 16.96 70.49C17.86 68.82 20.01 56.84 20.09 49.04C20.148 43.0455 20.7876 37.0708 22 31.2C23.24 25.46 24.94 21.82 27.05 20.34C27.12 19.08 27.05 17.81 27.05 16.58C27.05 15.35 26.96 13.97 27.05 12.63C27.14 11.29 27.36 9.62998 27.57 8.18998C27.78 6.74998 28 5.26998 28.09 3.83998C28.0956 3.7688 28.1153 3.69946 28.148 3.63595C28.1806 3.57244 28.2254 3.51603 28.28 3.46998C28.3793 3.39076 28.503 3.34836 28.63 3.34998H28.68ZM28.6 1.59998C28.1828 1.60492 27.7751 1.72526 27.4221 1.94765C27.0691 2.17004 26.7846 2.48581 26.6 2.85998C26.4613 3.13048 26.3796 3.4266 26.36 3.72998C26.27 5.08998 26.06 6.53998 25.85 7.93998C25.64 9.33998 25.41 10.94 25.31 12.52C25.24 13.8924 25.24 15.2675 25.31 16.64C25.31 17.53 25.37 18.51 25.31 19.48C23.15 21.48 21.5 25.17 20.31 30.83C19.1089 36.8128 18.4893 42.8978 18.46 49C18.38 56.65 16.27 68.2 15.54 69.64C15.3906 69.9081 15.2986 70.2044 15.27 70.51C15.2381 70.8137 15.2722 71.1207 15.37 71.41C15.4604 71.7009 15.6102 71.9699 15.81 72.2C16.0071 72.432 16.2485 72.6224 16.52 72.76C16.7394 72.921 16.9436 73.1017 17.13 73.3C17.6382 73.9016 18.2703 74.3864 18.9831 74.7212C19.6958 75.056 20.4725 75.233 21.26 75.24C21.8479 75.2348 22.4327 75.1541 23 75C23.31 74.92 23.65 74.83 24 74.72C24.909 74.4077 25.8594 74.2325 26.82 74.2C27.7625 74.2121 28.6934 74.4092 29.56 74.78C30.299 75.0683 31.0868 75.2109 31.88 75.2C32.7738 75.1795 33.6641 75.0791 34.54 74.9C35.3972 74.7305 36.2667 74.6302 37.14 74.6C37.4344 74.6001 37.7284 74.6201 38.02 74.66C38.2422 74.6766 38.4628 74.7101 38.68 74.76C39.8908 74.9847 41.1186 75.1052 42.35 75.12H42.84C43.4697 75.532 44.167 75.8298 44.9 76L45.76 76.15C46.2486 76.9328 46.9685 77.5443 47.82 77.9C48.6347 78.2633 49.518 78.4475 50.41 78.44C51.253 78.45 52.0883 78.2795 52.86 77.94C53.1902 77.7908 53.4995 77.5992 53.78 77.37C53.8785 77.3085 53.9943 77.2805 54.11 77.29H54.78C55.21 77.29 55.78 77.38 56.4 77.38H57.33C58.1912 77.3959 59.0471 77.2416 59.8486 76.9258C60.65 76.6101 61.3811 76.1391 62 75.54C62.11 75.42 62.21 75.29 62.31 75.16L63.31 74.77C63.7389 74.6011 64.1078 74.3084 64.3696 73.929C64.6314 73.5496 64.7743 73.1009 64.78 72.64C64.7764 71.8059 64.5027 70.9955 64 70.33C63.5044 69.6571 62.8019 69.1653 62 68.93C50 65.39 43.49 48.22 41.73 42.84C39 27.29 38 22.64 37.44 21C37.68 20 37.99 19.08 38.26 18.21C38.64 16.98 39.04 15.72 39.33 14.38C39.73 12.53 40.01 10.65 40.33 8.82998C40.5 7.62998 40.68 6.43998 40.89 5.28998C40.9499 4.98287 40.9499 4.66708 40.89 4.35998C40.8128 4.0531 40.6736 3.76527 40.4809 3.51419C40.2883 3.26311 40.0464 3.05408 39.77 2.89998C39.4995 2.74436 39.2 2.64567 38.89 2.60998L37.59 2.48998H37.38C36.9719 2.49155 36.5716 2.60167 36.2201 2.80904C35.8687 3.0164 35.5787 3.31355 35.38 3.66998L33.16 7.56998L32 3.38998C31.878 2.93942 31.6195 2.53769 31.26 2.23998C30.9038 1.93915 30.4642 1.75425 30 1.70998L28.88 1.59998H28.6Z" fill="white"/>
<path d="M28.68 3.88L29.84 3.98L32.43 13.64L37.3 4.76L38.6 4.88C38.06 7.88 37.74 10.94 37.1 13.88C36.56 16.35 35.6 18.67 35.1 21.14C32.72 22.34 30.35 22.3 27.67 20.46C27.83 17.83 27.5 15.29 27.67 12.66C27.81 9.77 28.49 6.78 28.68 3.88Z" fill="white"/>
<path d="M31.94 22.83C30.2181 22.7839 28.5523 22.2077 27.17 21.18C27.0473 21.0943 26.9488 20.9784 26.884 20.8436C26.8192 20.7087 26.7902 20.5593 26.8 20.41C26.87 19.15 26.8 17.86 26.8 16.63C26.8 15.4 26.72 13.97 26.8 12.63C26.87 11.09 27.1 9.50002 27.32 7.97002C27.52 6.61002 27.72 5.20002 27.81 3.85002C27.8155 3.73464 27.845 3.62168 27.8967 3.51836C27.9483 3.41504 28.021 3.32365 28.11 3.25002C28.1934 3.1661 28.2934 3.10052 28.4036 3.05747C28.5138 3.01442 28.6318 2.99485 28.75 3.00002L29.91 3.10002C30.0886 3.1144 30.2585 3.18359 30.3963 3.29815C30.5341 3.4127 30.6332 3.56702 30.68 3.74002L32.68 11.3L36.5 4.30002C36.5827 4.15062 36.7071 4.02853 36.8581 3.94862C37.009 3.86872 37.1799 3.83446 37.35 3.85002L38.65 3.97002C38.7709 3.98189 38.8882 4.01814 38.9948 4.07658C39.1013 4.13501 39.195 4.21442 39.27 4.31002C39.4107 4.50683 39.4681 4.75113 39.43 4.99002C39.21 6.20002 39.03 7.41002 38.85 8.62002C38.59 10.4 38.31 12.25 37.92 14.03C37.66 15.25 37.29 16.43 36.92 17.58C36.5243 18.7923 36.1906 20.0239 35.92 21.27C35.8923 21.4004 35.8357 21.5229 35.7544 21.6285C35.673 21.7341 35.569 21.82 35.45 21.88C34.372 22.4709 33.1688 22.7966 31.94 22.83ZM28.57 20C29.3946 20.5962 30.3642 20.9599 31.3775 21.0532C32.3907 21.1464 33.4104 20.9657 34.33 20.53C34.6 19.36 34.95 18.21 35.33 17.1C35.71 15.99 36.03 14.84 36.33 13.69C36.71 11.97 36.98 10.16 37.24 8.40002L37.57 6.25002L33.2 14.06C33.1159 14.2128 32.9883 14.3371 32.8334 14.4172C32.6785 14.4974 32.5033 14.5297 32.33 14.51C32.1558 14.4891 31.9917 14.4172 31.8583 14.3034C31.7248 14.1895 31.628 14.0387 31.58 13.87L29.39 5.68002C29.29 6.52002 29.17 7.36002 29.05 8.19002C28.84 9.68002 28.61 11.19 28.54 12.7C28.46 14 28.54 15.31 28.54 16.57C28.54 17.83 28.61 18.84 28.57 20Z" fill="#222222"/>
<path d="M39.46 43.2C46.46 65.2 57.87 70.1 61.35 71.13C61.6781 71.2258 61.9661 71.4261 62.17 71.7004C62.374 71.9748 62.4828 72.3082 62.48 72.65L60.86 73.29C60.56 73.58 60.53 73.75 60.27 74.03C59.4045 74.7705 58.2875 75.15 57.15 75.09C54.9 75.26 54.06 74.61 52.71 75.32C52.24 75.56 52.34 75.64 51.92 75.83C50.35 76.53 47.99 75.94 47.59 74.68C47.59 74.61 48.15 74.42 48.14 74.31C47.2228 74.0595 46.291 73.8658 45.35 73.73C44.6077 73.5762 43.9184 73.2315 43.35 72.73" fill="white"/>
<path d="M50.4 77C49.7115 76.9992 49.0306 76.8562 48.4 76.58C48.0302 76.4372 47.6953 76.217 47.4176 75.9341C47.1399 75.6513 46.9259 75.3123 46.79 74.94C46.7857 74.9202 46.7857 74.8997 46.79 74.88L46.46 74.82L45.22 74.59C44.3303 74.4025 43.5038 73.9892 42.82 73.39C42.6596 73.2323 42.5656 73.0193 42.5574 72.7945C42.5492 72.5697 42.6273 72.3504 42.7758 72.1814C42.9242 72.0125 43.1318 71.9068 43.3557 71.8861C43.5797 71.8653 43.8031 71.9312 43.98 72.07C44.4329 72.4739 44.9851 72.75 45.58 72.87C45.93 72.95 46.36 73.02 46.77 73.1C48.57 73.42 48.99 73.49 49.06 74.23C49.0846 74.4508 49.0237 74.6726 48.89 74.85C48.9686 74.9046 49.0523 74.9515 49.14 74.99C49.9312 75.315 50.8188 75.315 51.61 74.99C51.6734 74.9696 51.7314 74.9355 51.78 74.89C51.952 74.7308 52.1477 74.5993 52.36 74.5C53.215 74.079 54.1843 73.9491 55.12 74.13C55.7854 74.1885 56.4546 74.1885 57.12 74.13C57.1594 74.1198 57.2006 74.1198 57.24 74.13C58.1522 74.1708 59.0459 73.8633 59.74 73.27C59.777 73.2226 59.8105 73.1724 59.84 73.12C59.9672 72.9191 60.1183 72.7345 60.29 72.57C60.3724 72.4896 60.4714 72.4281 60.58 72.39L61.43 72.05C61.3261 72.0053 61.2125 71.9881 61.1 72C47.42 68 40.44 49.16 38.63 43.5C38.5945 43.391 38.5809 43.2761 38.5899 43.1618C38.5988 43.0475 38.6302 42.9362 38.6822 42.834C38.7342 42.7319 38.8058 42.641 38.8929 42.5665C38.9801 42.492 39.081 42.4354 39.19 42.4C39.299 42.3645 39.4139 42.3509 39.5282 42.3598C39.6424 42.3688 39.7538 42.4002 39.856 42.4522C39.9581 42.5042 40.049 42.5758 40.1235 42.6629C40.198 42.75 40.2545 42.851 40.29 42.96C47.21 64.54 58.35 69.36 61.6 70.32C62.1092 70.47 62.5552 70.7826 62.87 71.21C63.1906 71.636 63.3596 72.1569 63.35 72.69C63.3482 72.8629 63.2949 73.0313 63.197 73.1738C63.099 73.3163 62.9608 73.4264 62.8 73.49L61.36 74L61.25 74.16C61.1492 74.316 61.0355 74.4631 60.91 74.6C59.8877 75.5334 58.5439 76.0351 57.16 76C56.4065 76.0512 55.6498 76.0311 54.9 75.94C54.3033 75.7984 53.6763 75.8618 53.12 76.12C53.0273 76.1614 52.9426 76.219 52.87 76.29C52.6905 76.4387 52.4921 76.5631 52.28 76.66C51.6831 76.9006 51.0433 77.0163 50.4 77Z" fill="#222222"/>
<path d="M48.64 70.63C48.0324 71.4533 47.1421 72.0231 46.14 72.23C42.72 73.4 39.76 72.6 38.26 72.4C35.07 71.99 32.43 73.51 30.35 72.67C26.61 71.17 24.27 72.33 22.35 72.8C19.4 73.53 19.01 71.47 17.49 70.72C18.54 68.79 20.61 56.65 20.7 49.02C20.82 37.44 23.04 22.9 27.85 20.47C28.4706 20.6693 29.1059 20.8198 29.75 20.92C31.4846 21.2364 33.2544 21.3138 35.01 21.15C35.76 21.93 39.32 42.43 40.65 50.15C41.43 54.76 44.01 62.43 48.59 70.64" fill="white"/>
<path d="M21.26 73.83C20.6585 73.8177 20.0668 73.6745 19.5262 73.4103C18.9857 73.146 18.5092 72.7672 18.13 72.3C17.8378 71.9857 17.5008 71.7161 17.13 71.5C17.0263 71.4462 16.9341 71.3724 16.8589 71.283C16.7836 71.1935 16.7267 71.0901 16.6915 70.9787C16.6562 70.8673 16.6432 70.75 16.6532 70.6335C16.6633 70.5171 16.6962 70.4037 16.75 70.3C17.64 68.66 19.75 56.78 19.85 49.01C19.95 39.5 21.67 22.63 27.48 19.69C27.6854 19.5891 27.9218 19.5712 28.14 19.64C28.7232 19.82 29.3179 19.9603 29.92 20.06C31.5696 20.3542 33.2509 20.4282 34.92 20.28C35.0502 20.2678 35.1815 20.2849 35.3044 20.3299C35.4272 20.3748 35.5384 20.4466 35.63 20.54C35.99 20.92 36.63 21.54 41.5 50C42.22 54.26 44.65 61.77 49.29 70.13C49.3959 70.2712 49.4522 70.4435 49.45 70.62C49.4539 70.7357 49.4347 70.851 49.3935 70.9592C49.3523 71.0674 49.2899 71.1662 49.21 71.25C48.4893 72.1828 47.4622 72.8309 46.31 73.08C43.8773 73.8228 41.2943 73.9261 38.81 73.38L38.08 73.27C36.7815 73.154 35.4729 73.2383 34.2 73.52C32.8151 73.9211 31.3449 73.9211 29.96 73.52C27.8928 72.6535 25.5704 72.6212 23.48 73.43L22.55 73.69C22.1265 73.7844 21.6939 73.8314 21.26 73.83ZM18.62 70.38C18.9 70.6 19.14 70.84 19.37 71.06C19.6755 71.4992 20.118 71.8248 20.6283 71.9858C21.1385 72.1469 21.6877 72.1343 22.19 71.95L23.04 71.71C25.5141 70.7927 28.2438 70.8463 30.68 71.86C31.7728 72.131 32.9177 72.1103 34 71.8C35.4469 71.4803 36.9349 71.3892 38.41 71.53L39.2 71.66C41.418 72.157 43.7272 72.0673 45.9 71.4H46.01C46.6171 71.2769 47.1759 70.9818 47.62 70.55C43.02 62.19 40.62 54.65 39.88 50.33C36.25 29.27 34.98 23.58 34.54 22.1C32.9142 22.1988 31.2825 22.1015 29.68 21.81C29.1123 21.7157 28.5512 21.5854 28 21.42C24 24 21.75 37.41 21.62 49C21.54 55.84 19.84 66.89 18.62 70.38Z" fill="#222222"/>
<path d="M22.28 64.21C22.1906 64.2245 22.0994 64.2245 22.01 64.21C21.9008 64.1749 21.7996 64.1185 21.7123 64.0441C21.625 63.9697 21.5532 63.8787 21.5012 63.7765C21.4491 63.6743 21.4178 63.5627 21.409 63.4484C21.4002 63.334 21.4142 63.219 21.45 63.11C22.1844 60.7927 22.7033 58.4126 23 56C23.2838 53.6479 23.3608 51.2755 23.23 48.91C23.18 47.08 23.12 45 23.29 42.28C23.4476 39.5049 23.7816 36.7426 24.29 34.01C24.3324 33.7819 24.4638 33.58 24.655 33.4487C24.8463 33.3175 25.0819 33.2676 25.31 33.31C25.5381 33.3524 25.74 33.4837 25.8713 33.675C26.0025 33.8663 26.0524 34.1019 26.01 34.33C25.5071 36.9895 25.1731 39.6782 25.01 42.38C24.85 45.03 24.91 46.98 24.96 48.86C25.0902 51.3157 25.0099 53.778 24.72 56.22C24.3979 58.7436 23.8388 61.2313 23.05 63.65C22.99 63.8081 22.8852 63.9452 22.7484 64.0447C22.6117 64.1441 22.4489 64.2016 22.28 64.21Z" fill="#222222"/>
<path d="M55.89 72.51C55.7581 72.5099 55.628 72.4791 55.51 72.42C53.722 71.563 52.0572 70.4699 50.56 69.17C49.42 68.17 42.78 61.34 40.89 54.75C40.8585 54.6397 40.849 54.5243 40.8621 54.4103C40.8752 54.2963 40.9106 54.186 40.9663 54.0858C41.022 53.9855 41.097 53.8971 41.1868 53.8258C41.2767 53.7545 41.3797 53.7015 41.49 53.67C41.6003 53.6385 41.7157 53.629 41.8297 53.6421C41.9437 53.6552 42.054 53.6906 42.1543 53.7464C42.2545 53.8021 42.3429 53.877 42.4142 53.9668C42.4855 54.0567 42.5385 54.1597 42.57 54.27C44.34 60.43 50.8 67.06 51.71 67.85C53.0853 69.0543 54.6197 70.0638 56.27 70.85C56.4479 70.9373 56.5911 71.0821 56.6765 71.2609C56.7619 71.4397 56.7844 71.6421 56.7404 71.8353C56.6965 72.0285 56.5886 72.2012 56.4342 72.3255C56.2799 72.4498 56.0881 72.5183 55.89 72.52V72.51Z" fill="#222222"/>
<path d="M24.36 68C24.2397 68.002 24.1203 67.9782 24.01 67.93C23.9047 67.8844 23.8094 67.8184 23.7297 67.7358C23.65 67.6532 23.5874 67.5556 23.5456 67.4487C23.5037 67.3418 23.4835 67.2277 23.486 67.1129C23.4884 66.9982 23.5136 66.885 23.56 66.78C24.2852 65.1026 24.8771 63.3705 25.33 61.6C25.5841 60.6426 25.7811 59.6709 25.92 58.69C25.957 58.4605 26.0823 58.2546 26.2692 58.1163C26.4561 57.978 26.6897 57.9183 26.92 57.95C27.0339 57.9671 27.1433 58.0066 27.2418 58.0662C27.3403 58.1258 27.426 58.2045 27.4939 58.2975C27.5619 58.3905 27.6106 58.4961 27.6374 58.6081C27.6642 58.7201 27.6685 58.8363 27.65 58.95C27.4898 59.9779 27.2728 60.9962 27 62C26.5166 63.8585 25.8914 65.6771 25.13 67.44C25.0711 67.5988 24.9665 67.7367 24.8296 67.8363C24.6926 67.9359 24.5292 67.9929 24.36 68Z" fill="#222222"/>
<path d="M25.8 31.17H25.73C25.6156 31.1612 25.5041 31.1298 25.4019 31.0777C25.2997 31.0256 25.2088 30.9538 25.1344 30.8664C25.0601 30.7791 25.0037 30.6779 24.9687 30.5686C24.9336 30.4594 24.9204 30.3443 24.93 30.23C25.247 26.5757 26.7219 23.118 29.14 20.36C29.2139 20.2658 29.3062 20.1877 29.4113 20.1305C29.5164 20.0732 29.6321 20.038 29.7513 20.0269C29.8704 20.0159 29.9906 20.0293 30.1044 20.0663C30.2183 20.1033 30.3233 20.1632 30.4132 20.2422C30.5032 20.3212 30.576 20.4177 30.6273 20.5258C30.6786 20.6339 30.7074 20.7514 30.7118 20.871C30.7161 20.9906 30.6961 21.1099 30.6528 21.2215C30.6095 21.333 30.5439 21.4346 30.46 21.52C28.2857 23.9907 26.9578 27.0915 26.67 30.37C26.6502 30.5875 26.5501 30.7899 26.3893 30.9378C26.2285 31.0856 26.0184 31.1684 25.8 31.17Z" fill="#222222"/>
</svg>
